SplineFontDB: 3.2
FontName: Rocohn-Regular
FullName: Rocohn Regular
FamilyName: Rocohn
Weight: Regular
Copyright: Copyright (c) 2019, Ronen.Cohen
UComments: "2019-9-27: Created with FontForge (http://fontforge.org)"
Version: 001.000
ItalicAngle: 0
UnderlinePosition: -100
UnderlineWidth: 50
Ascent: 800
Descent: 200
InvalidEm: 0
LayerCount: 2
Layer: 0 0 "Back" 1
Layer: 1 0 "Fore" 0
XUID: [1021 1023 -1521988005 18956]
StyleMap: 0x0000
FSType: 0
OS2Version: 0
OS2_WeightWidthSlopeOnly: 0
OS2_UseTypoMetrics: 1
CreationTime: 1569588779
ModificationTime: 1579867034
OS2TypoAscent: 0
OS2TypoAOffset: 1
OS2TypoDescent: 0
OS2TypoDOffset: 1
OS2TypoLinegap: 90
OS2WinAscent: 0
OS2WinAOffset: 1
OS2WinDescent: 0
OS2WinDOffset: 1
HheadAscent: 0
HheadAOffset: 1
HheadDescent: 0
HheadDOffset: 1
Lookup: 258 0 0 "'kern' Horizontal Kerning lookup 0" { "'kern' Horizontal Kerning lookup 0-1" [150,0,2] } ['kern' ('DFLT' <'dflt' > 'hebr' <'dflt' > 'latn' <'dflt' > ) ]
MarkAttachClasses: 1
DEI: 91125
KernClass2: 35 16 "'kern' Horizontal Kerning lookup 0-1"
 1 A
 1 B
 1 C
 3 D O
 1 E
 1 F
 1 G
 21 H I M N a d g i j l u
 3 J U
 1 K
 1 L
 1 P
 1 Q
 1 R
 1 S
 1 T
 1 V
 1 W
 1 X
 1 Y
 1 Z
 5 b o p
 1 c
 1 e
 1 f
 5 h m n
 1 k
 1 q
 1 r
 1 s
 1 t
 5 v w y
 1 x
 1 z
 1 A
 33 B D E F H I K L M N P R b h i k l
 7 C G O Q
 1 J
 1 S
 13 a c d e g o q
 1 f
 1 j
 7 m n p r
 1 s
 1 t
 1 u
 5 v w y
 1 x
 1 z

StartChar: underscoredbl
Encoding: 223 8215 0
Width: 160
VWidth: 0
Flags: W
HStem: 47 20<40 120>
VStem: 40 80<47 67>
LayerCount: 2
Fore
SplineSet
40 57 m 1
 40 67 l 1
 50 67 l 1
 110 67 l 1
 120 67 l 1
 120 57 l 1
 120 47 l 1
 110 47 l 1
 50 47 l 1
 40 47 l 1
 40 57 l 1
EndSplineSet
Validated: 1
EndChar

StartChar: uni05D0
Encoding: 224 1488 1
Width: 674
VWidth: 0
Flags: W
HStem: -0.0996094 21G<48.3398 141.82 508.203 634.06> 580.1 20G<40 165.857 526.2 632.979>
VStem: 539.2 93.7793<512.857 600.1>
LayerCount: 2
Fore
SplineSet
524.33984375 -0.099609375 m 1
 206.809570312 393.440429688 l 1
 138.33984375 -0.099609375 l 1
 48.33984375 -0.099609375 l 1
 136.669921875 480.299804688 l 1
 40 600.099609375 l 1
 149.719726562 600.099609375 l 1
 418.129882812 267.440429688 l 1
 429.639648438 287.440429688 l 2
 477.280273438 370.099609375 513.200195312 472.490234375 539.200195312 600.099609375 c 1
 632.979492188 600.099609375 l 1
 599.1796875 438.799804688 548.780273438 311.009765625 479.1796875 209.799804688 c 2
 472.5 200.099609375 l 1
 634.059570312 -0.099609375 l 1
 524.33984375 -0.099609375 l 1
EndSplineSet
Validated: 1
EndChar

StartChar: uni05D1
Encoding: 225 1489 2
Width: 651
VWidth: 0
Flags: W
HStem: -0.240234 88.4502<40 431.25 519.7 611.561> 516.79 88.4502<72.7236 322.102>
VStem: 431.25 88.4502<88.21 406.071>
LayerCount: 2
Fore
SplineSet
235.390625 605.240234375 m 0
 392.190429688 605.240234375 519.700195312 478.139648438 519.700195312 321.91015625 c 2
 519.700195312 88.2099609375 l 1
 611.560546875 88.2099609375 l 1
 611.560546875 -0.240234375 l 1
 40 -0.240234375 l 1
 40 88.2099609375 l 1
 431.25 88.2099609375 l 1
 431.25 320.9296875 l 2
 430.959960938 428.75390625 343.21484375 516.499023438 235.390625 516.790039062 c 0
 183.110351562 516.790039062 127.91015625 515.580078125 71.1103515625 513.209960938 c 1
 64.8701171875 595.370117188 l 1
 137.91015625 601.830078125 196.640625 605.240234375 235.390625 605.240234375 c 0
EndSplineSet
Validated: 1
EndChar

StartChar: uni05D2
Encoding: 226 1490 3
Width: 480
VWidth: 0
Flags: W
HStem: -0.0498047 88.5303<40 156.664> 511.65 88.4492<146.66 253.73>
LayerCount: 2
Fore
SplineSet
40 88.48046875 m 1
 89.3603515625 89.76953125 141.030273438 101.120117188 183.650390625 120.209960938 c 0
 243.169921875 146.91015625 284.5 187.91015625 303.169921875 238.91015625 c 2
 304.669921875 243 l 1
 253.73046875 511.650390625 l 1
 146.66015625 511.650390625 l 1
 146.66015625 600.099609375 l 1
 326.98046875 600.099609375 l 1
 440.770507812 -0.08984375 l 1
 350.770507812 -0.08984375 l 1
 323.650390625 142.91015625 l 1
 302.169921875 114.33984375 l 2
 229.790039062 18.080078125 109.709960938 0.9501953125 40 -0.0498046875 c 1
 40 88.48046875 l 1
EndSplineSet
Validated: 1
EndChar

StartChar: uni05D3
Encoding: 227 1491 4
Width: 621
VWidth: 0
Flags: W
HStem: -0.110352 21G<403.101 491.55> 511.65 88.4492<40 403.101 491.55 581.561>
VStem: 403.101 88.4492<-0.110352 511.65>
LayerCount: 2
Fore
SplineSet
581.560546875 600.099609375 m 1
 581.560546875 511.650390625 l 1
 491.549804688 511.650390625 l 1
 491.549804688 -0.1103515625 l 1
 403.100585938 -0.1103515625 l 1
 403.100585938 511.650390625 l 1
 40 511.650390625 l 1
 40 600.099609375 l 1
 581.560546875 600.099609375 l 1
EndSplineSet
Validated: 1
EndChar

StartChar: uni05D4
Encoding: 228 1492 5
Width: 622
VWidth: 0
Flags: W
HStem: -0.240234 21G<47.5195 135.97 494.05 582.46> 516.74 88.5<49.5366 384.856>
VStem: 47.5195 88.4502<-0.240234 285.77> 494.05 88.4102<-0.240234 406.071>
LayerCount: 2
Fore
SplineSet
47.51953125 285.76953125 m 1
 135.969726562 293.559570312 l 1
 135.969726562 -0.240234375 l 1
 47.51953125 -0.240234375 l 1
 47.51953125 285.76953125 l 1
582.459960938 -0.240234375 m 1
 494.049804688 -0.240234375 l 1
 494.049804688 320.9296875 l 2
 493.731445312 428.749023438 405.96875 516.471679688 298.149414062 516.740234375 c 0
 296.5 516.740234375 141.359375 516.690429688 46.240234375 513.129882812 c 1
 40 595.240234375 l 1
 127.379882812 602.240234375 263.849609375 605.240234375 298.149414062 605.240234375 c 0
 454.919921875 605.240234375 582.459960938 478.139648438 582.459960938 321.91015625 c 2
 582.459960938 -0.240234375 l 1
EndSplineSet
Validated: 1
EndChar

StartChar: uni05D5
Encoding: 229 1493 6
Width: 168
VWidth: 0
Flags: W
HStem: -0.110352 21G<40 128.45> 580.1 20G<40 128.45>
VStem: 40 88.4502<-0.110352 600.1>
LayerCount: 2
Fore
SplineSet
40 -0.1103515625 m 1
 40 600.099609375 l 1
 128.450195312 600.099609375 l 1
 128.450195312 -0.1103515625 l 1
 40 -0.1103515625 l 1
EndSplineSet
Validated: 1
EndChar

StartChar: uni05D6
Encoding: 230 1494 7
Width: 373
VWidth: 0
Flags: W
HStem: -0.849609 21G<138.89 227.35> 498.9 88.46<229.193 333.41> 550.1 78.6904<68.9621 108.116>
VStem: 138.89 88.46<-0.849609 505.58>
LayerCount: 2
Fore
SplineSet
333.41015625 498.900390625 m 1xd0
 303 499.3203125 273.229492188 501 244.719726562 503.83984375 c 2
 227.349609375 505.580078125 l 1
 227.349609375 -0.849609375 l 1
 138.889648438 -0.849609375 l 1
 138.889648438 520.8203125 l 1
 126.819335938 523.75 l 2
 102.44140625 529.65234375 63.5458984375 541.45703125 40 550.099609375 c 1
 71.7900390625 628.790039062 l 1xb0
 158.1796875 602.009765625 242.080078125 588.719726562 333.41015625 587.360351562 c 1
 333.41015625 498.900390625 l 1xd0
EndSplineSet
Validated: 1
EndChar

StartChar: uni05D7
Encoding: 231 1495 8
Width: 651
VWidth: 0
Flags: W
HStem: -0.240234 21G<40 128.45 523.32 611.78> 514.09 91.1504<130.626 417.826>
VStem: 40 88.4502<-0.240234 514.09> 523.32 88.46<-0.240234 404.478>
LayerCount: 2
Fore
SplineSet
465.799804688 459.26953125 m 0
 434.306640625 491.021484375 372.451171875 516.790039062 327.729492188 516.790039062 c 0
 327.658203125 516.790039062 327.541992188 516.790039062 327.469726562 516.790039062 c 0
 308.030273438 516.790039062 237.370117188 516.620117188 143.879882812 514.450195312 c 2
 128.450195312 514.08984375 l 1
 128.450195312 -0.240234375 l 1
 40 -0.240234375 l 1
 40 592.469726562 l 1
 176.25 601.240234375 283.860351562 605.240234375 327.469726562 605.240234375 c 0
 484.229492188 605.240234375 611.780273438 478.139648438 611.780273438 321.91015625 c 2
 611.780273438 -0.240234375 l 1
 523.3203125 -0.240234375 l 1
 523.3203125 320.9296875 l 2
 523.3203125 321.004882812 523.3203125 321.125 523.3203125 321.200195312 c 0
 523.3203125 365.920898438 497.55078125 427.776367188 465.799804688 459.26953125 c 0
EndSplineSet
Validated: 1
EndChar

StartChar: uni05D8
Encoding: 232 1496 9
Width: 648
VWidth: 0
Flags: W
HStem: -6.17969 88.4697<237.523 411.116> 517.88 88.2998<309.505 456.328>
VStem: 40 88.4697<192.989 599.29> 520.189 88.4297<192.989 453.893>
LayerCount: 2
Fore
SplineSet
324.309570312 -6.1796875 m 0
 167.540039062 -6.1796875 40 120.919921875 40 277.150390625 c 2
 40 599.290039062 l 1
 128.469726562 599.290039062 l 1
 128.469726562 278.150390625 l 2
 128.469726562 170.03515625 216.21484375 82.2900390625 324.329101562 82.2900390625 c 0
 432.444335938 82.2900390625 520.189453125 170.03515625 520.189453125 278.150390625 c 2
 520.189453125 381.25 l 2
 520.189453125 456.58984375 458.899414062 517.879882812 383.559570312 517.879882812 c 2
 382.689453125 517.879882812 l 2
 382.685546875 517.879882812 382.678710938 517.879882812 382.673828125 517.879882812 c 0
 359.01171875 517.879882812 324.075195312 506.868164062 304.689453125 493.299804688 c 1
 256.389648438 558.1796875 l 1
 289.116210938 584.67578125 349.8515625 606.1796875 391.959960938 606.1796875 c 0
 391.96484375 606.1796875 391.973632812 606.1796875 391.979492188 606.1796875 c 0
 511.4296875 606.1796875 608.619140625 509 608.619140625 389.540039062 c 2
 608.619140625 277.150390625 l 2
 608.619140625 120.919921875 481.079101562 -6.1796875 324.309570312 -6.1796875 c 0
EndSplineSet
Validated: 1
EndChar

StartChar: uni05D9
Encoding: 233 1497 10
Width: 168
VWidth: 0
Flags: W
HStem: 306.31 293.79<40 119.49>
VStem: 40 88.4609<314.1 600.1>
LayerCount: 2
Fore
SplineSet
40 600.099609375 m 1
 128.4609375 600.099609375 l 1
 128.4609375 314.099609375 l 1
 40 306.309570312 l 1
 40 600.099609375 l 1
EndSplineSet
Validated: 1
EndChar

StartChar: uni05DA
Encoding: 234 1498 11
Width: 554
VWidth: 0
Flags: W
HStem: 514.29 88.4502<48.6701 316.866>
VStem: 426.021 88.4502<-157.43 403.571>
LayerCount: 2
Fore
SplineSet
230.16015625 514.290039062 m 0
 200.360351562 514.290039062 125.360351562 513.919921875 46.2802734375 510.700195312 c 1
 40 592.849609375 l 1
 118.620117188 599.629882812 192.629882812 602.740234375 230.16015625 602.740234375 c 0
 386.930664062 602.740234375 514.470703125 475.639648438 514.470703125 319.41015625 c 2
 514.470703125 -157.4296875 l 1
 426.020507812 -157.4296875 l 1
 426.020507812 318.4296875 l 2
 425.729492188 426.25390625 337.984375 513.999023438 230.16015625 514.290039062 c 0
EndSplineSet
Validated: 1
EndChar

StartChar: uni05DB
Encoding: 235 1499 12
Width: 554
VWidth: 0
Flags: W
HStem: -2.74023 88.4502<48.651 316.866> 514.29 88.4502<48.651 316.866>
VStem: 426.021 88.4502<196.429 403.571>
LayerCount: 2
Fore
SplineSet
514.470703125 280.58984375 m 2
 514.470703125 124.360351562 386.930664062 -2.740234375 230.16015625 -2.740234375 c 0
 192.629882812 -2.740234375 118.620117188 0.3701171875 40 7.150390625 c 1
 46.240234375 89.2998046875 l 1
 125.360351562 86.080078125 200.360351562 85.7099609375 230.16015625 85.7099609375 c 0
 337.984375 86.0009765625 425.729492188 173.74609375 426.020507812 281.5703125 c 2
 426.020507812 318.4296875 l 2
 425.729492188 426.25390625 337.984375 513.999023438 230.16015625 514.290039062 c 0
 200.360351562 514.290039062 125.360351562 513.919921875 46.240234375 510.700195312 c 1
 40 592.849609375 l 1
 118.620117188 599.629882812 192.629882812 602.740234375 230.16015625 602.740234375 c 0
 386.930664062 602.740234375 514.470703125 475.639648438 514.470703125 319.41015625 c 2
 514.470703125 280.58984375 l 2
EndSplineSet
Validated: 1
EndChar

StartChar: uni05DC
Encoding: 236 1500 13
Width: 579
VWidth: 0
Flags: W
HStem: -0.110352 21G<265.21 366.519> 511.65 88.4492<128.45 450.46>
VStem: 40 88.4502<600.1 754.8>
LayerCount: 2
Fore
SplineSet
539.879882812 600.099609375 m 1
 539.879882812 498.8203125 l 1
 359.279296875 -0.1103515625 l 1
 265.209960938 -0.1103515625 l 1
 450.459960938 511.650390625 l 1
 40 511.650390625 l 1
 40 754.799804688 l 1
 128.450195312 754.799804688 l 1
 128.450195312 600.099609375 l 1
 539.879882812 600.099609375 l 1
EndSplineSet
Validated: 1
EndChar

StartChar: uni05DD
Encoding: 237 1501 14
Width: 651
VWidth: 0
Flags: W
HStem: -0.0996094 88.4492<128.45 523.32> 516.92 88.4102<130.626 411.918>
VStem: 40 88.4502<88.3496 514.23> 523.32 88.46<88.3496 406.161>
LayerCount: 2
Fore
SplineSet
611.780273438 -0.099609375 m 1
 40 -0.099609375 l 1
 40 592.559570312 l 1
 176.25 601.330078125 283.860351562 605.330078125 327.469726562 605.330078125 c 0
 484.229492188 605.330078125 611.780273438 478.23046875 611.780273438 322 c 2
 611.780273438 -0.099609375 l 1
128.450195312 514.23046875 m 1
 128.450195312 88.349609375 l 1
 523.3203125 88.349609375 l 1
 523.3203125 321.059570312 l 2
 523.029296875 428.87890625 435.288085938 516.624023438 327.469726562 516.919921875 c 0
 308.030273438 516.919921875 237.370117188 516.75 143.879882812 514.580078125 c 2
 128.450195312 514.23046875 l 1
EndSplineSet
Validated: 1
EndChar

StartChar: uni05DE
Encoding: 238 1502 15
Width: 648
VWidth: 0
Flags: W
HStem: -0.110352 21G<40 128.42> 4 83.29<336.64 461.696> 580.1 20G<40 128.45>
VStem: 40 88.4199<-0.110352 382.82 502.22 600.1> 520.46 88.46<146.917 420.942>
LayerCount: 2
Fore
SplineSet
608.919921875 211.26953125 m 2xb8
 608.919921875 91.8095703125 511.729492188 -5.3701171875 392.299804688 -5.400390625 c 0
 392.24609375 -5.400390625 392.159179688 -5.400390625 392.104492188 -5.400390625 c 0
 374.3828125 -5.400390625 346.24609375 -1.1884765625 329.299804688 4 c 1
 336.639648438 87.2900390625 l 1x78
 385.919921875 78.490234375 435.959960938 88.5498046875 470.75 115 c 0
 503.26953125 139.73046875 520.459960938 175.889648438 520.459960938 219.580078125 c 2
 520.459960938 331.450195312 l 2
 520.459960938 383.719726562 503.610351562 429.1796875 471.610351562 462.9296875 c 0
 443.3203125 492.809570312 403.309570312 512.870117188 358.959960938 519.419921875 c 0
 269.25 532.669921875 161.5 490 129.08984375 382.8203125 c 2
 128.419921875 380.58984375 l 1
 128.419921875 -0.1103515625 l 1
 40 -0.1103515625 l 1
 40 600.099609375 l 1
 128.450195312 600.099609375 l 1
 128.450195312 502.219726562 l 1
 155.740234375 531.219726562 l 2
 224.099609375 603.76953125 343.549804688 625.969726562 446.209960938 585.219726562 c 0
 549.610351562 544.169921875 608.919921875 451.6796875 608.919921875 331.450195312 c 2
 608.919921875 211.26953125 l 2xb8
EndSplineSet
Validated: 33
EndChar

StartChar: uni05DF
Encoding: 239 1503 16
Width: 168
VWidth: 0
Flags: W
HStem: 580.1 20G<40 128.45>
VStem: 40 88.4502<-160.9 600.1>
LayerCount: 2
Fore
SplineSet
40 -160.900390625 m 1
 40 600.099609375 l 1
 128.450195312 600.099609375 l 1
 128.450195312 -160.900390625 l 1
 40 -160.900390625 l 1
EndSplineSet
Validated: 1
EndChar

StartChar: uni05E0
Encoding: 240 1504 17
Width: 359
VWidth: 0
Flags: W
HStem: 4 83.2998<47.3301 172.396> 511.65 88.4492<119.07 231.16>
VStem: 231.16 88.4502<146.921 511.65>
LayerCount: 2
Fore
SplineSet
319.610351562 211.26953125 m 2
 319.610351562 91.8203125 222.430664062 -5.3701171875 103 -5.400390625 c 0
 102.944335938 -5.400390625 102.853515625 -5.400390625 102.797851562 -5.400390625 c 0
 85.0771484375 -5.400390625 56.9443359375 -1.1884765625 40 4 c 1
 47.330078125 87.2998046875 l 1
 96.6103515625 78.5 146.66015625 88.5498046875 181.450195312 115 c 0
 213.970703125 139.73046875 231.16015625 175.889648438 231.16015625 219.580078125 c 2
 231.16015625 511.650390625 l 1
 119.0703125 511.650390625 l 1
 119.0703125 600.099609375 l 1
 319.610351562 600.099609375 l 1
 319.610351562 211.26953125 l 2
EndSplineSet
Validated: 33
EndChar

StartChar: uni05E1
Encoding: 241 1505 18
Width: 648
VWidth: 0
Flags: W
HStem: -5.33008 88.4102<237.513 411.106> 516.92 88.4502<237.513 411.106>
VStem: 40 88.4492<193.839 406.201> 520.17 88.4492<193.824 406.18>
LayerCount: 2
Fore
SplineSet
324.309570312 605.370117188 m 0
 481.079101562 605.370117188 608.619140625 478.26953125 608.619140625 322 c 2
 608.619140625 278 l 2
 608.619140625 121.73046875 481.079101562 -5.330078125 324.309570312 -5.330078125 c 0
 167.540039062 -5.330078125 40 121.76953125 40 278 c 2
 40 322.040039062 l 2
 40 478.26953125 167.540039062 605.370117188 324.309570312 605.370117188 c 0
520.169921875 278.940429688 m 2
 520.169921875 321.059570312 l 2
 520.169921875 429.174804688 432.423828125 516.919921875 324.309570312 516.919921875 c 0
 216.1953125 516.919921875 128.44921875 429.174804688 128.44921875 321.059570312 c 2
 128.44921875 278.940429688 l 2
 128.44921875 170.825195312 216.1953125 83.080078125 324.309570312 83.080078125 c 0
 432.423828125 83.080078125 520.169921875 170.825195312 520.169921875 278.940429688 c 2
EndSplineSet
Validated: 1
EndChar

StartChar: uni05E2
Encoding: 242 1506 19
Width: 643
VWidth: 0
Flags: W
HStem: 580.1 20G<40 143.569 503.095 603.77>
VStem: 509.979 93.79<489.339 600.1>
LayerCount: 2
Fore
SplineSet
150.129882812 -106.809570312 m 2
 147.879882812 -108 l 1
 113.01953125 -41 l 1
 148.349609375 -20.8056640625 201.948242188 17.2509765625 232.659179688 43.9501953125 c 2
 240.849609375 51.099609375 l 1
 40 600.099609375 l 1
 136.389648438 600.099609375 l 1
 313.689453125 106.150390625 l 1
 331.319335938 126.91015625 l 2
 382.08984375 186.719726562 423.69921875 264.639648438 454.979492188 358.5 c 0
 478.169921875 428.16015625 496.209960938 507.3203125 509.979492188 600.099609375 c 1
 603.76953125 600.099609375 l 1
 526.729492188 98.2802734375 309.389648438 -20.080078125 150.129882812 -106.809570312 c 2
EndSplineSet
Validated: 1
EndChar

StartChar: uni05E3
Encoding: 243 1507 20
Width: 640
VWidth: 0
Flags: W
HStem: 219.07 61.8496<195.262 221.857> 514.29 88.4502<176.086 400.018>
VStem: 40 88.4492<340.75 466.895> 512.33 88.4492<-158.26 401.97>
LayerCount: 2
Fore
SplineSet
454.809570312 456.76953125 m 0
 423.31640625 488.521484375 361.4609375 514.290039062 316.739257812 514.290039062 c 0
 316.665039062 514.290039062 316.543945312 514.290039062 316.469726562 514.290039062 c 2
 240.239257812 514.290039062 l 2
 178.603515625 514.212890625 128.521484375 464.126953125 128.44921875 402.490234375 c 0
 128.44921875 362.990234375 151.26953125 328.4296875 194.44921875 302.4296875 c 0
 206.624023438 295.211914062 227.353515625 285.575195312 240.719726562 280.919921875 c 1
 219.44921875 219.0703125 l 1
 133.939453125 233.490234375 40 288.91015625 40 402.490234375 c 0
 40 512.91015625 129.830078125 602.740234375 240.239257812 602.740234375 c 2
 316.469726562 602.740234375 l 2
 473.239257812 602.740234375 600.779296875 475.639648438 600.779296875 319.41015625 c 2
 600.779296875 -158.259765625 l 1
 512.330078125 -158.259765625 l 1
 512.330078125 318.4296875 l 2
 512.330078125 318.5 512.330078125 318.61328125 512.330078125 318.68359375 c 0
 512.330078125 363.408203125 486.560546875 425.271484375 454.809570312 456.76953125 c 0
EndSplineSet
Validated: 1
EndChar

StartChar: uni05E4
Encoding: 244 1508 21
Width: 644
VWidth: 0
Flags: W
HStem: -2.74023 88.4502<118.507 407.096> 219.07 61.8496<195.263 221.858> 514.29 88.4502<176.087 404.843>
VStem: 40 88.4902<340.75 466.895> 516.25 88.4502<196.429 403.571>
LayerCount: 2
Fore
SplineSet
604.700195312 280.58984375 m 2
 604.700195312 124.360351562 477.16015625 -2.740234375 320.390625 -2.740234375 c 0
 279.720703125 -2.740234375 187.049804688 0.7001953125 109.720703125 7.169921875 c 1
 115.959960938 89.2998046875 l 1
 201.959960938 85.900390625 300.540039062 85.7099609375 320.390625 85.7099609375 c 0
 428.21484375 86.0009765625 515.959960938 173.74609375 516.25 281.5703125 c 2
 516.25 318.4296875 l 2
 515.959960938 426.25390625 428.21484375 513.999023438 320.390625 514.290039062 c 2
 240.280273438 514.290039062 l 2
 178.643554688 514.212890625 128.561523438 464.126953125 128.490234375 402.490234375 c 0
 128.490234375 362.990234375 151.299804688 328.4296875 194.490234375 302.4296875 c 0
 206.653320312 295.211914062 227.364257812 285.575195312 240.720703125 280.919921875 c 1
 219.450195312 219.0703125 l 1
 133.940429688 233.490234375 40 288.91015625 40 402.490234375 c 0
 40 512.91015625 129.830078125 602.740234375 240.240234375 602.740234375 c 2
 320.390625 602.740234375 l 2
 477.16015625 602.740234375 604.700195312 475.639648438 604.700195312 319.41015625 c 2
 604.700195312 280.58984375 l 2
EndSplineSet
Validated: 1
EndChar

StartChar: uni05E5
Encoding: 245 1509 22
Width: 667
VWidth: 0
Flags: W
HStem: 580.1 20G<40 149.626 532.013 627.17>
VStem: 536.96 90.21<518.815 600.1>
LayerCount: 2
Fore
SplineSet
536.959960938 600.099609375 m 1
 627.169921875 600.099609375 l 1
 619.942382812 562.028320312 604.01171875 501.333007812 591.609375 464.620117188 c 0
 567.389648438 392.919921875 535.879882812 326.309570312 497.879882812 266.620117188 c 0
 472.46875 226.526367188 424.533203125 166.81640625 390.879882812 133.33984375 c 2
 382.669921875 125.209960938 l 1
 526.099609375 -154.790039062 l 1
 426.719726562 -154.790039062 l 1
 40 600.099609375 l 1
 139.379882812 600.099609375 l 1
 340.459960938 207.599609375 l 1
 355.790039062 224.76953125 l 2
 408.370117188 283.629882812 452.009765625 353.990234375 485.490234375 433.889648438 c 0
 504.0078125 478.428710938 527.06640625 552.890625 536.959960938 600.099609375 c 1
EndSplineSet
Validated: 1
EndChar

StartChar: uni05E6
Encoding: 246 1510 23
Width: 649
VWidth: 0
Flags: W
HStem: -0.0996094 88.4492<40.71 457> 580.1 20G<40 174.27 495.465 609.17>
LayerCount: 2
Fore
SplineSet
396.110351562 334.719726562 m 2
 440.530273438 406.549804688 478.599609375 494.26953125 512.330078125 600.099609375 c 1
 609.169921875 600.099609375 l 1
 565.33984375 462.219726562 510.5 345.870117188 446 256.400390625 c 2
 439 246.709960938 l 1
 556.809570312 98.3203125 l 1
 558.540039062 -0.099609375 l 1
 40.7099609375 -0.099609375 l 1
 40.7099609375 88.349609375 l 1
 457 88.349609375 l 1
 40 600.099609375 l 1
 158.389648438 600.099609375 l 1
 384.280273438 315.610351562 l 1
 396.110351562 334.719726562 l 2
EndSplineSet
Validated: 1
EndChar

StartChar: uni05E7
Encoding: 247 1511 24
Width: 650
VWidth: 0
Flags: W
HStem: -0.110352 21G<335.54 436.85> 511.65 88.4492<40 520.79>
VStem: 56.8506 88.4502<-154.79 291.58>
LayerCount: 2
Fore
SplineSet
610.220703125 600.099609375 m 1
 610.220703125 498.8203125 l 1
 429.610351562 -0.1103515625 l 1
 335.540039062 -0.1103515625 l 1
 520.790039062 511.650390625 l 1
 40 511.650390625 l 1
 40 600.099609375 l 1
 610.220703125 600.099609375 l 1
56.8505859375 -154.790039062 m 1
 56.8505859375 291.580078125 l 1
 145.30078125 291.580078125 l 1
 145.30078125 -154.790039062 l 1
 56.8505859375 -154.790039062 l 1
EndSplineSet
Validated: 1
EndChar

StartChar: uni05E8
Encoding: 248 1512 25
Width: 554
VWidth: 0
Flags: W
HStem: -0.0996094 21G<426.021 514.471> 516.92 88.4102<48.6701 316.866>
VStem: 426.021 88.4502<-0.0996094 406.161>
LayerCount: 2
Fore
SplineSet
230.16015625 516.919921875 m 0
 200.360351562 516.919921875 125.360351562 516.549804688 46.2802734375 513.33984375 c 1
 40 595.440429688 l 1
 118.620117188 602.219726562 192.629882812 605.330078125 230.16015625 605.330078125 c 0
 386.930664062 605.330078125 514.470703125 478.23046875 514.470703125 322 c 2
 514.470703125 -0.099609375 l 1
 426.020507812 -0.099609375 l 1
 426.020507812 321.059570312 l 2
 425.729492188 428.883789062 337.984375 516.629882812 230.16015625 516.919921875 c 0
EndSplineSet
Validated: 1
EndChar

StartChar: uni05E9
Encoding: 249 1513 26
Width: 720
VWidth: 0
Flags: W
HStem: -0.0996094 88.4492<128.47 480.124> 580.1 20G<40 128.47 337.215 426.9 591.53 680>
VStem: 40 88.4697<88.3496 600.1> 338.43 88.4707<413.411 600.1> 591.53 88.4697<199.069 600.1>
LayerCount: 2
Fore
SplineSet
338.4296875 600.099609375 m 1
 426.900390625 600.099609375 l 1
 424.309570312 416.4296875 376.900390625 295.389648438 333 209.3203125 c 1
 260.900390625 239 l 1
 299 331.450195312 336 446.129882812 338.4296875 600.099609375 c 1
680 283.23046875 m 2
 680 127 552.440429688 -0.099609375 395.669921875 -0.099609375 c 2
 40 -0.099609375 l 1
 40 600.099609375 l 1
 128.469726562 600.099609375 l 1
 128.469726562 88.349609375 l 1
 395.669921875 88.349609375 l 2
 503.48828125 88.640625 591.234375 176.381835938 591.530273438 284.200195312 c 2
 591.530273438 600.099609375 l 1
 680 600.099609375 l 1
 680 283.23046875 l 2
EndSplineSet
Validated: 1
EndChar

StartChar: uni05EA
Encoding: 250 1514 27
Width: 766
VWidth: 0
Flags: W
HStem: -5.63965 78.0098<58.5731 160.976> 515.25 90.0801<189.679 202.75 291.23 531.296>
VStem: 202.75 88.4805<114.736 512.45> 638.181 88.4492<-0.0996094 406.161>
LayerCount: 2
Fore
SplineSet
58 77.240234375 m 1
 70.16015625 74.4296875 86.650390625 71.4404296875 98.8603515625 72.3701171875 c 0
 156.166015625 72.818359375 202.708007812 119.693359375 202.75 177 c 2
 202.75 512.450195312 l 1
 186.180664062 511.629882812 l 2
 166.620117188 510.66015625 149.3203125 509.559570312 134.510742188 508.349609375 c 1
 120.5703125 587.200195312 l 1
 208.25 599.650390625 393.600585938 605.330078125 442.3203125 605.330078125 c 0
 599.090820312 605.330078125 726.629882812 478.23046875 726.629882812 322 c 2
 726.629882812 -0.099609375 l 1
 638.180664062 -0.099609375 l 1
 638.180664062 321.0703125 l 2
 637.889648438 428.877929688 550.158203125 516.623046875 442.350585938 516.9296875 c 0
 431.400390625 516.9296875 373.379882812 516.860351562 306.720703125 515.549804688 c 2
 291.23046875 515.25 l 1
 291.23046875 176.9296875 l 2
 291.23046875 102.900390625 266.629882812 50.51953125 218.100585938 21.25 c 0
 179.700195312 -1.91015625 134.100585938 -6.150390625 102.620117188 -5.6396484375 c 0
 75.8701171875 -5.169921875 53.3408203125 -1.25 40 2.3603515625 c 1
 58 77.240234375 l 1
EndSplineSet
Validated: 33
EndChar

StartChar: a
Encoding: 97 97 29
Width: 648
VWidth: 0
Flags: W
HStem: -5.33008 88.4102<236.779 412.877> 516.92 88.4502<236.779 412.877>
VStem: 40 88.4492<193.839 406.201> 520.17 88.4492<189.799 410.201>
LayerCount: 2
Fore
SplineSet
540.759765625 600.110351562 m 1
 608.619140625 600.110351562 l 1
 608.619140625 -0.0703125 l 1
 540.759765625 -0.0703125 l 1
 511.19921875 82.3203125 l 1
 493.6796875 66.2001953125 l 2
 443.540039062 20.0703125 379.389648438 -5.330078125 313.059570312 -5.330078125 c 0
 162.489257812 -5.330078125 40 121.76953125 40 278 c 2
 40 322.040039062 l 2
 40 478.26953125 162.489257812 605.370117188 313.059570312 605.370117188 c 0
 379.389648438 605.370117188 443.540039062 580 493.6796875 533.83984375 c 2
 511.19921875 517.719726562 l 1
 540.759765625 600.110351562 l 1
520.169921875 278.940429688 m 2
 520.169921875 321.059570312 l 2
 520.169921875 429.174804688 432.423828125 516.919921875 324.309570312 516.919921875 c 0
 216.1953125 516.919921875 128.44921875 429.174804688 128.44921875 321.059570312 c 2
 128.44921875 278.940429688 l 2
 128.44921875 170.825195312 216.1953125 83.080078125 324.309570312 83.080078125 c 0
 432.423828125 83.080078125 520.169921875 170.825195312 520.169921875 278.940429688 c 2
EndSplineSet
Validated: 1
EndChar

StartChar: b
Encoding: 98 98 30
Width: 648
VWidth: 0
Flags: W
HStem: -5.37012 88.4502<235.742 411.84> 516.92 88.4102<235.742 411.84> 780 20G<40 128.449>
VStem: 40 88.4492<189.799 410.201 509.43 800> 520.17 88.4492<193.799 406.161>
LayerCount: 2
Fore
SplineSet
40 800 m 1
 128.44921875 800 l 1
 128.44921875 509.4296875 l 1
 154.939453125 533.799804688 l 2
 205.079101562 579.9296875 269.229492188 605.330078125 335.559570312 605.330078125 c 0
 486.129882812 605.330078125 608.619140625 478.23046875 608.619140625 322 c 2
 608.619140625 277.959960938 l 2
 608.619140625 121.73046875 486.129882812 -5.3701171875 335.559570312 -5.3701171875 c 0
 269.229492188 -5.3701171875 205.079101562 20.0302734375 154.939453125 66.16015625 c 2
 137.419921875 82.2802734375 l 1
 107.859375 -0.099609375 l 1
 40 -0.099609375 l 1
 40 800 l 1
128.44921875 321.059570312 m 2
 128.44921875 278.940429688 l 2
 128.44921875 170.825195312 216.1953125 83.080078125 324.309570312 83.080078125 c 0
 432.423828125 83.080078125 520.169921875 170.825195312 520.169921875 278.940429688 c 2
 520.169921875 321.059570312 l 2
 520.169921875 429.174804688 432.423828125 516.919921875 324.309570312 516.919921875 c 0
 216.1953125 516.919921875 128.44921875 429.174804688 128.44921875 321.059570312 c 2
EndSplineSet
Validated: 1
EndChar

StartChar: c
Encoding: 99 99 31
Width: 581
VWidth: 0
Flags: W
HStem: -5.33008 88.6641<237.62 412.799> 516.923 88.4473<237.454 412.777>
VStem: 40 88.4502<193.839 406.201>
LayerCount: 2
Fore
SplineSet
478.330078125 441.709960938 m 1
 464.947265625 458.733398438 438.784179688 481.19140625 419.9296875 491.83984375 c 0
 395.290039062 505.685546875 352.353515625 516.922851562 324.08984375 516.922851562 c 0
 216.096679688 516.922851562 128.450195312 429.276367188 128.450195312 321.283203125 c 0
 128.450195312 321.221679688 128.450195312 321.12109375 128.450195312 321.059570312 c 2
 128.450195312 278.940429688 l 2
 128.666992188 170.965820312 216.475585938 83.333984375 324.450195312 83.333984375 c 0
 352.594726562 83.333984375 395.3828125 94.46484375 419.959960938 108.1796875 c 0
 438.814453125 118.829101562 464.977539062 141.287109375 478.360351562 158.309570312 c 1
 541.360351562 95.3095703125 l 1
 487.610351562 32.0498046875 407.48046875 -5.330078125 324.310546875 -5.330078125 c 0
 167.540039062 -5.330078125 40 121.76953125 40 278 c 2
 40 322.040039062 l 2
 40 478.26953125 167.540039062 605.370117188 324.310546875 605.370117188 c 0
 407.48046875 605.370117188 487.620117188 568 541.330078125 504.709960938 c 1
 478.330078125 441.709960938 l 1
EndSplineSet
Validated: 1
EndChar

StartChar: d
Encoding: 100 100 32
Width: 648
VWidth: 0
Flags: W
HStem: -5.33008 88.4102<236.779 412.877> 516.92 88.4502<236.779 412.877> 785.17 20G<520.17 608.619>
VStem: 40 88.4492<193.839 406.201> 520.17 88.4492<189.799 410.201 509.47 805.17>
LayerCount: 2
Fore
SplineSet
520.169921875 805.169921875 m 1
 608.619140625 805.169921875 l 1
 608.619140625 -0.0595703125 l 1
 540.759765625 -0.0595703125 l 1
 511.19921875 82.3203125 l 1
 493.6796875 66.2001953125 l 2
 443.540039062 20.0703125 379.389648438 -5.330078125 313.059570312 -5.330078125 c 0
 162.489257812 -5.330078125 40 121.76953125 40 278 c 2
 40 322.040039062 l 2
 40 478.26953125 162.489257812 605.370117188 313.059570312 605.370117188 c 0
 379.389648438 605.370117188 443.540039062 580 493.6796875 533.83984375 c 2
 520.169921875 509.469726562 l 1
 520.169921875 805.169921875 l 1
520.169921875 278.940429688 m 2
 520.169921875 321.059570312 l 2
 520.169921875 429.174804688 432.423828125 516.919921875 324.309570312 516.919921875 c 0
 216.1953125 516.919921875 128.44921875 429.174804688 128.44921875 321.059570312 c 2
 128.44921875 278.940429688 l 2
 128.44921875 170.825195312 216.1953125 83.080078125 324.309570312 83.080078125 c 0
 432.423828125 83.080078125 520.169921875 170.825195312 520.169921875 278.940429688 c 2
EndSplineSet
Validated: 1
EndChar

StartChar: e
Encoding: 101 101 33
Width: 648
VWidth: 0
Flags: W
HStem: -5.33008 88.6914<238.756 409.101> 266.61 63.1797<127.97 520.779> 516.92 88.4102<237.427 411.194>
VStem: 40 87.9697<248.34 266.61 329.79 347.74>
LayerCount: 2
Fore
SplineSet
462.309570312 140.25 m 1
 572.419921875 140.290039062 l 1
 522.219726562 51.080078125 427.309570312 -5.330078125 324.309570312 -5.330078125 c 0
 167.540039062 -5.330078125 40 121.76953125 40 278 c 2
 40 322 l 2
 40 478.26953125 167.540039062 605.330078125 324.309570312 605.330078125 c 0
 481.079101562 605.330078125 608.619140625 478.23046875 608.619140625 322 c 2
 608.619140625 266.610351562 l 1
 127.969726562 266.610351562 l 1
 130.859375 248.33984375 l 2
 145.408203125 157.271484375 232.063476562 83.361328125 324.287109375 83.361328125 c 0
 368.852539062 83.361328125 430.686523438 108.84765625 462.309570312 140.25 c 1
130.309570312 347.740234375 m 2
 127.779296875 329.790039062 l 1
 520.779296875 329.790039062 l 1
 518.309570312 347.740234375 l 2
 505.049804688 444.190429688 421.619140625 516.919921875 324.309570312 516.919921875 c 0
 227 516.919921875 143.58984375 444.190429688 130.309570312 347.740234375 c 2
EndSplineSet
Validated: 1
EndChar

StartChar: f
Encoding: 102 102 34
Width: 435
VWidth: 0
Flags: W
HStem: 0 21G<166.801 255.25> 511.76 88.4502<40 166.801 255.25 382.9> 840.26 88.4502<297.998 395.841>
VStem: 166.801 88.4492<0 511.76 600.21 797.537>
LayerCount: 2
Fore
SplineSet
382.900390625 600.209960938 m 5
 393.73046875 511.759765625 l 5
 255.25 511.759765625 l 5
 255.25 0 l 5
 166.80078125 0 l 5
 166.80078125 511.759765625 l 5
 40 511.759765625 l 5
 40 600.209960938 l 5
 166.840820312 600.209960938 l 5
 166.840820312 735.709960938 l 6
 166.840820312 842.110351562 253.400390625 928.709960938 359.840820312 928.709960938 c 6
 395.840820312 928.709960938 l 5
 395.840820312 840.259765625 l 5
 359.840820312 840.259765625 l 6
 302.166992188 840.194335938 255.310546875 793.333007812 255.25 735.66015625 c 6
 255.25 600.209960938 l 5
 382.900390625 600.209960938 l 5
EndSplineSet
Validated: 1
EndChar

StartChar: g
Encoding: 103 103 35
Width: 648
VWidth: 0
Flags: W
HStem: -279.13 88.4268<235.868 412.305> -5.33008 88.4102<236.779 412.877> 516.92 88.4502<236.779 412.877>
VStem: 40 88.4492<193.839 406.201> 520.17 88.4492<-16.1904 90.5703 189.799 410.201>
LayerCount: 2
Fore
SplineSet
608.619140625 -5.849609375 m 1
 607.919921875 -16.1904296875 l 2
 597.219726562 -163.629882812 472.669921875 -279.129882812 324.359375 -279.129882812 c 0
 241.189453125 -279.129882812 161.059570312 -241.75 107.309570312 -178.490234375 c 1
 170.309570312 -115.490234375 l 1
 183.6875 -132.510742188 209.841796875 -154.969726562 228.689453125 -165.620117188 c 0
 253.330078125 -179.465820312 296.265625 -190.703125 324.529296875 -190.703125 c 0
 432.5234375 -190.703125 520.169921875 -103.056640625 520.169921875 4.9365234375 c 0
 520.169921875 5.009765625 520.169921875 5.126953125 520.169921875 5.2001953125 c 2
 520.169921875 90.5703125 l 1
 493.6796875 66.2001953125 l 2
 443.540039062 20.0703125 379.389648438 -5.330078125 313.059570312 -5.330078125 c 0
 162.489257812 -5.330078125 40 121.76953125 40 278 c 2
 40 322.040039062 l 2
 40 478.26953125 162.489257812 605.370117188 313.059570312 605.370117188 c 0
 379.389648438 605.370117188 443.540039062 580 493.6796875 533.83984375 c 2
 511.19921875 517.719726562 l 1
 540.759765625 600.099609375 l 1
 608.619140625 600.099609375 l 1
 608.619140625 -5.849609375 l 1
520.169921875 278.940429688 m 2
 520.169921875 321.059570312 l 2
 520.169921875 429.174804688 432.423828125 516.919921875 324.309570312 516.919921875 c 0
 216.1953125 516.919921875 128.44921875 429.174804688 128.44921875 321.059570312 c 2
 128.44921875 278.940429688 l 2
 128.44921875 170.825195312 216.1953125 83.080078125 324.309570312 83.080078125 c 0
 432.423828125 83.080078125 520.169921875 170.825195312 520.169921875 278.940429688 c 2
EndSplineSet
Validated: 1
EndChar

StartChar: h
Encoding: 104 104 36
Width: 624
VWidth: 0
Flags: W
HStem: -0.0996094 21G<40 128.46 495.95 584.4> 780 20G<40 128.45>
VStem: 40 88.46<-0.0996094 416.751 493.61 800> 495.95 88.4502<-0.0996094 416.483>
LayerCount: 2
Fore
SplineSet
312.200195312 516.919921875 m 0
 210.879882812 516.919921875 128.459960938 434.490234375 128.459960938 333.169921875 c 2
 128.459960938 -0.099609375 l 1
 40 -0.099609375 l 1
 40 800 l 1
 128.450195312 800 l 1
 128.450195312 493.610351562 l 1
 156.209960938 525.870117188 l 2
 220.690429688 600.780273438 328.390625 627.209960938 424.209960938 591.66015625 c 0
 526.009765625 553.879882812 584.400390625 459.669921875 584.400390625 333.169921875 c 2
 584.400390625 -0.099609375 l 1
 495.950195312 -0.099609375 l 1
 495.950195312 333.169921875 l 2
 495.950195312 434.490234375 413.520507812 516.919921875 312.200195312 516.919921875 c 0
EndSplineSet
Validated: 33
EndChar

StartChar: i
Encoding: 105 105 37
Width: 174
VWidth: 0
Flags: W
HStem: -0.110352 21G<43.1592 131.609> 580.1 20G<43.1592 131.609> 705.22 94.7803<47.4658 127.314>
VStem: 43.1592 88.4502<-0.110352 600.1 710.94 794.28>
LayerCount: 2
Fore
SplineSet
43.1591796875 -0.1103515625 m 1
 43.1591796875 600.099609375 l 1
 131.609375 600.099609375 l 1
 131.609375 -0.1103515625 l 1
 43.1591796875 -0.1103515625 l 1
40 752.610351562 m 0
 40 778.783203125 61.216796875 800 87.3896484375 800 c 0
 113.5625 800 134.779296875 778.783203125 134.779296875 752.610351562 c 0
 134.779296875 726.4375 113.5625 705.219726562 87.3896484375 705.219726562 c 0
 61.216796875 705.219726562 40 726.4375 40 752.610351562 c 0
EndSplineSet
Validated: 1
EndChar

StartChar: j
Encoding: 106 106 38
Width: 294
VWidth: 0
Flags: W
HStem: -200 75<59.7023 87.3156> 580.11 20G<165.58 254.04> 692.62 94.7598<166.735 246.566>
VStem: 159.271 94.7598<-57.6966 600.11 700.084 779.916>
LayerCount: 2
Fore
SplineSet
159.270507812 740 m 0
 159.270507812 766.166992188 180.483398438 787.379882812 206.650390625 787.379882812 c 0
 232.817382812 787.379882812 254.030273438 766.166992188 254.030273438 740 c 0
 254.030273438 713.833007812 232.817382812 692.620117188 206.650390625 692.620117188 c 0
 180.483398438 692.620117188 159.270507812 713.833007812 159.270507812 740 c 0
93.740234375 -99.400390625 m 0
 140.740234375 -68.6904296875 165.580078125 -24.8798828125 165.580078125 27.3095703125 c 2
 165.580078125 600.110351562 l 1
 254.040039062 600.110351562 l 1
 254.040039062 27.3095703125 l 2
 254.040039062 -86.150390625 173.940429688 -179.75 61.73046875 -200 c 1
 40 -125 l 1
 55.7412109375 -119.842773438 79.8173828125 -108.374023438 93.740234375 -99.400390625 c 0
EndSplineSet
Validated: 1
EndChar

StartChar: k
Encoding: 107 107 39
Width: 569
VWidth: 0
Flags: W
HStem: -0.110352 21G<40 128.46 420.289 529.29> 580.1 20G<410.598 526.08> 780 20G<40 128.46>
VStem: 40 88.46<-0.110352 146 257.89 800>
LayerCount: 2
Fore
SplineSet
526.080078125 600.099609375 m 1
 285.129882812 324.9296875 l 1
 529.290039062 -0.1103515625 l 1
 435.169921875 -0.1103515625 l 1
 235.5 268.25 l 1
 128.459960938 146 l 1
 128.459960938 -0.1103515625 l 1
 40 -0.1103515625 l 1
 40 800 l 1
 128.459960938 800 l 1
 128.459960938 257.889648438 l 1
 428.110351562 600.099609375 l 1
 526.080078125 600.099609375 l 1
EndSplineSet
Validated: 1
EndChar

StartChar: l
Encoding: 108 108 40
Width: 168
VWidth: 0
Flags: W
HStem: -0.0996094 21G<40 128.45> 780 20G<40 128.45>
VStem: 40 88.4502<-0.0996094 800>
LayerCount: 2
Fore
SplineSet
40 -0.099609375 m 1
 40 800 l 1
 128.450195312 800 l 1
 128.450195312 -0.099609375 l 1
 40 -0.099609375 l 1
EndSplineSet
Validated: 1
EndChar

StartChar: m
Encoding: 109 109 41
Width: 1080
VWidth: 0
Flags: W
HStem: -0.0996094 21G<40 128.45 495.939 584.4 951.92 1040.37> 580.1 20G<40 113.751>
VStem: 40 88.4502<-0.0996094 416.751> 40 67.4102<578.022 600.1> 495.939 88.4609<-0.0996094 416.76> 951.92 88.4502<-0.0996094 416.547>
LayerCount: 2
Fore
SplineSet
768.169921875 516.919921875 m 0xdc
 666.83984375 516.919921875 584.41015625 434.509765625 584.400390625 333.169921875 c 2
 584.400390625 -0.099609375 l 1
 495.939453125 -0.099609375 l 1
 495.939453125 333.200195312 l 2
 495.9296875 434.5 413.51953125 516.919921875 312.200195312 516.919921875 c 0
 210.879882812 516.919921875 128.450195312 434.490234375 128.450195312 333.169921875 c 2
 128.450195312 -0.099609375 l 1
 40 -0.099609375 l 1xec
 40 600.099609375 l 1
 107.41015625 600.099609375 l 1
 137.75 504.41015625 l 1
 156.229492188 525.870117188 l 2
 207.25 585.16015625 286.01953125 614.870117188 367.01953125 605.370117188 c 0
 447.729492188 595.9296875 515.219726562 549.440429688 552.169921875 477.9296875 c 2
 565.969726562 451.139648438 l 1
 580.120117188 477.76953125 l 1
 580.240234375 478 l 2
 580.58984375 478.610351562 580.919921875 479.23046875 581.240234375 479.860351562 c 0
 631.309570312 577.200195312 742.889648438 626.639648438 852.599609375 600.080078125 c 0
 943.370117188 578.099609375 1040.37011719 496.440429688 1040.37011719 333.169921875 c 2
 1040.37011719 -0.099609375 l 1
 951.919921875 -0.099609375 l 1
 951.919921875 333.169921875 l 2
 951.919921875 434.490234375 869.490234375 516.919921875 768.169921875 516.919921875 c 0xdc
EndSplineSet
Validated: 33
EndChar

StartChar: n
Encoding: 110 110 42
Width: 624
VWidth: 0
Flags: W
HStem: -0.0996094 21G<40 128.45 495.95 584.4> 580.11 20G<40 113.741>
VStem: 40 88.4502<-0.0996094 416.751> 40 67.4004<578.03 600.11> 495.95 88.4502<-0.0996094 416.483>
LayerCount: 2
Fore
SplineSet
312.200195312 516.919921875 m 0xd8
 210.879882812 516.919921875 128.450195312 434.490234375 128.450195312 333.169921875 c 2
 128.450195312 -0.099609375 l 1
 40 -0.099609375 l 1xe8
 40 600.110351562 l 1
 107.400390625 600.110351562 l 1
 137.740234375 504.41015625 l 1
 156.209960938 525.870117188 l 2
 220.690429688 600.780273438 328.379882812 627.209960938 424.209960938 591.66015625 c 0
 526.009765625 553.879882812 584.400390625 459.669921875 584.400390625 333.169921875 c 2
 584.400390625 -0.099609375 l 1
 495.950195312 -0.099609375 l 1
 495.950195312 333.169921875 l 2
 495.950195312 434.490234375 413.520507812 516.919921875 312.200195312 516.919921875 c 0xd8
EndSplineSet
Validated: 33
EndChar

StartChar: o
Encoding: 111 111 43
Width: 648
VWidth: 0
Flags: W
HStem: -5.33008 88.4102<237.513 411.106> 516.92 88.4502<237.513 411.106>
VStem: 40 88.4492<193.839 406.201> 520.17 88.4492<193.824 406.18>
LayerCount: 2
Fore
SplineSet
324.309570312 605.370117188 m 0
 481.079101562 605.370117188 608.619140625 478.26953125 608.619140625 322 c 2
 608.619140625 278 l 2
 608.619140625 121.73046875 481.079101562 -5.330078125 324.309570312 -5.330078125 c 0
 167.540039062 -5.330078125 40 121.76953125 40 278 c 2
 40 322.040039062 l 2
 40 478.26953125 167.540039062 605.370117188 324.309570312 605.370117188 c 0
520.169921875 278.940429688 m 2
 520.169921875 321.059570312 l 2
 520.169921875 429.174804688 432.423828125 516.919921875 324.309570312 516.919921875 c 0
 216.1953125 516.919921875 128.44921875 429.174804688 128.44921875 321.059570312 c 2
 128.44921875 278.940429688 l 2
 128.44921875 170.825195312 216.1953125 83.080078125 324.309570312 83.080078125 c 0
 432.423828125 83.080078125 520.169921875 170.825195312 520.169921875 278.940429688 c 2
EndSplineSet
Validated: 1
EndChar

StartChar: p
Encoding: 112 112 44
Width: 648
VWidth: 0
Flags: W
HStem: -5.37012 88.4502<235.742 411.84> 516.92 88.4102<235.742 411.84>
VStem: 40 88.4492<-200 90.5303 189.799 410.201> 520.17 88.4492<193.799 406.161>
LayerCount: 2
Fore
SplineSet
335.559570312 -5.3701171875 m 0
 269.229492188 -5.3701171875 205.079101562 20 154.939453125 66.16015625 c 2
 128.44921875 90.5302734375 l 1
 128.44921875 -200 l 1
 40 -200 l 1
 40 600.0703125 l 1
 107.859375 600.0703125 l 1
 137.419921875 517.6796875 l 1
 154.939453125 533.799804688 l 2
 205.079101562 579.9296875 269.229492188 605.330078125 335.559570312 605.330078125 c 0
 486.129882812 605.330078125 608.619140625 478.23046875 608.619140625 322 c 2
 608.619140625 277.959960938 l 2
 608.619140625 121.73046875 486.129882812 -5.3701171875 335.559570312 -5.3701171875 c 0
128.44921875 321.059570312 m 2
 128.44921875 278.940429688 l 2
 128.44921875 170.825195312 216.1953125 83.080078125 324.309570312 83.080078125 c 0
 432.423828125 83.080078125 520.169921875 170.825195312 520.169921875 278.940429688 c 2
 520.169921875 321.059570312 l 2
 520.169921875 429.174804688 432.423828125 516.919921875 324.309570312 516.919921875 c 0
 216.1953125 516.919921875 128.44921875 429.174804688 128.44921875 321.059570312 c 2
EndSplineSet
Validated: 1
EndChar

StartChar: q
Encoding: 113 113 45
Width: 648
VWidth: 0
Flags: W
HStem: -5.33008 88.7178<236.817 409.691> 516.92 88.4502<236.764 412.862>
VStem: 40 88.4199<193.839 406.201> 520.17 88.4492<-200 90.5703 195.383 410.201>
LayerCount: 2
Fore
SplineSet
608.619140625 -200 m 1
 520.169921875 -200 l 1
 520.169921875 90.5703125 l 1
 493.6796875 66.2001953125 l 2
 443.540039062 20.080078125 379.389648438 -5.330078125 313.059570312 -5.330078125 c 0
 162.489257812 -5.330078125 40 121.76953125 40 278 c 2
 40 322.040039062 l 2
 40 478.26953125 162.489257812 605.370117188 313.059570312 605.370117188 c 0
 379.389648438 605.370117188 443.540039062 580 493.6796875 533.83984375 c 2
 511.19921875 517.719726562 l 1
 540.759765625 600.110351562 l 1
 608.619140625 600.110351562 l 1
 608.619140625 -200 l 1
462.619140625 140.599609375 m 1
 462.649414062 140.599609375 l 1
 494.383789062 172.090820312 520.139648438 233.932617188 520.139648438 278.640625 c 0
 520.139648438 278.72265625 520.139648438 278.857421875 520.139648438 278.940429688 c 2
 520.139648438 321.059570312 l 2
 520.139648438 429.174804688 432.39453125 516.919921875 324.279296875 516.919921875 c 0
 216.165039062 516.919921875 128.419921875 429.174804688 128.419921875 321.059570312 c 2
 128.419921875 278.940429688 l 2
 128.588867188 170.995117188 216.333984375 83.3876953125 324.279296875 83.3876953125 c 0
 368.991210938 83.3876953125 430.967773438 109.018554688 462.619140625 140.599609375 c 1
EndSplineSet
Validated: 1
EndChar

StartChar: r
Encoding: 114 114 46
Width: 416
VWidth: 0
Flags: W
HStem: -0.0996094 21G<40 128.48> 516.92 88.4502<236.317 376.961>
VStem: 40 88.4805<-0.0996094 410.009>
LayerCount: 2
Fore
SplineSet
324.310546875 516.919921875 m 2
 216.502929688 516.61328125 128.770507812 428.868164062 128.48046875 321.059570312 c 2
 128.48046875 -0.099609375 l 1
 40 -0.099609375 l 1
 40 600.110351562 l 1
 107.860351562 600.110351562 l 1
 137.420898438 517.719726562 l 1
 154.940429688 533.83984375 l 2
 205.080078125 579.969726562 269.23046875 605.370117188 335.560546875 605.370117188 c 2
 376.9609375 605.370117188 l 1
 376.9609375 516.919921875 l 1
 324.310546875 516.919921875 l 2
EndSplineSet
Validated: 1
EndChar

StartChar: s
Encoding: 115 115 47
Width: 589
VWidth: 0
Flags: W
LayerCount: 2
Fore
SplineSet
277.827148438 -4.8701171875 m 0
 186.657226562 0.25 120.8671875 25.419921875 82.306640625 69.9599609375 c 0
 64.744140625 90.232421875 48.80859375 128.387695312 46.7373046875 155.129882812 c 1
 124.857421875 163.379882812 l 1
 128.431640625 151.801757812 137.606445312 134.831054688 145.336914062 125.5 c 0
 157.787109375 110.240234375 174.27734375 97.7998046875 194.336914062 88.5 c 0
 218.506835938 77.2802734375 247.95703125 70.6298828125 281.95703125 68.7197265625 c 0
 315.95703125 66.8095703125 345.95703125 70.1201171875 371.266601562 78.5302734375 c 0
 392.237304688 85.51953125 410.016601562 96.0400390625 424.1171875 109.780273438 c 0
 448.38671875 133.4296875 453.287109375 158.169921875 453.756835938 160.91015625 c 2
 453.916992188 161.8203125 l 1
 453.916992188 162.740234375 l 2
 454.846679688 179.240234375 449.857421875 193.799804688 439.077148438 206.01953125 c 0
 430.176757812 216.110351562 417.426757812 224.5 400.077148438 231.690429688 c 0
 370.306640625 244.030273438 329.876953125 251.51953125 287.077148438 259.440429688 c 0
 168.067382812 281.490234375 33.197265625 306.469726562 40.2666015625 441.150390625 c 0
 41.107421875 446.23046875 48.947265625 488.400390625 83.2666015625 528.23046875 c 0
 132.077148438 584.83984375 209.077148438 610.629882812 312.077148438 604.83984375 c 0
 403.247070312 599.719726562 469.037109375 574.549804688 507.6171875 530.040039062 c 0
 525.1796875 509.768554688 541.111328125 471.612304688 543.176757812 444.870117188 c 1
 465.067382812 436.620117188 l 1
 461.485351562 448.196289062 452.305664062 465.166992188 444.577148438 474.5 c 0
 432.126953125 489.759765625 415.63671875 502.200195312 395.577148438 511.5 c 0
 371.407226562 522.719726562 341.95703125 529.379882812 307.95703125 531.280273438 c 0
 273.95703125 533.1796875 243.95703125 529.879882812 218.666992188 521.440429688 c 0
 197.697265625 514.440429688 179.916992188 503.9296875 165.817382812 490.190429688 c 0
 141.546875 466.540039062 136.647460938 441.799804688 136.176757812 439.059570312 c 2
 136.016601562 438.150390625 l 1
 135.95703125 437.23046875 l 2
 135.02734375 420.66015625 140.02734375 406 150.857421875 393.799804688 c 0
 159.70703125 383.669921875 172.487304688 375.259765625 189.857421875 368.0703125 c 0
 219.697265625 355.719726562 260.176757812 348.280273438 303.037109375 340.41015625 c 0
 421.95703125 318.5703125 556.716796875 293.8203125 549.626953125 158.8203125 c 0
 548.796875 153.740234375 540.95703125 111.5703125 506.626953125 71.740234375 c 0
 457.827148438 15.1298828125 380.827148438 -10.66015625 277.827148438 -4.8701171875 c 0
EndSplineSet
Validated: 33
EndChar

StartChar: t
Encoding: 116 116 48
Width: 435
VWidth: 0
Flags: W
HStem: -7.29004 88.4502<297.982 395.84> 504.47 88.4502<40 166.8 255.25 382.86> 780 20G<166.8 255.25>
VStem: 166.8 88.4502<123.908 504.47 592.92 800>
LayerCount: 2
Fore
SplineSet
359.83984375 -7.2900390625 m 2
 253.370117188 -7.2900390625 166.799804688 79.3095703125 166.799804688 185.759765625 c 2
 166.799804688 504.469726562 l 1
 40 504.469726562 l 1
 40 592.919921875 l 1
 166.799804688 592.919921875 l 1
 166.799804688 800 l 1
 255.25 800 l 1
 255.25 592.919921875 l 1
 382.860351562 592.919921875 l 1
 393.740234375 504.469726562 l 1
 255.25 504.469726562 l 1
 255.25 185.759765625 l 2
 255.310546875 128.086914062 302.166992188 81.2255859375 359.83984375 81.16015625 c 2
 395.83984375 81.16015625 l 1
 395.83984375 -7.2900390625 l 1
 359.83984375 -7.2900390625 l 2
EndSplineSet
Validated: 1
EndChar

StartChar: u
Encoding: 117 117 49
Width: 624
VWidth: 0
Flags: W
HStem: -0.110352 21G<510.699 584.4> 580.1 20G<40 128.45 495.95 584.4>
VStem: 40 88.4502<183.517 600.1> 495.95 88.4502<183.249 600.1> 517.04 67.3604<-0.110352 21.9696>
LayerCount: 2
Fore
SplineSet
200.190429688 8.33984375 m 0xe8
 98.390625 46.1201171875 40 140.330078125 40 266.830078125 c 2
 40 600.099609375 l 1
 128.450195312 600.099609375 l 1
 128.450195312 266.830078125 l 2
 128.450195312 165.509765625 210.879882812 83.080078125 312.200195312 83.080078125 c 0
 413.520507812 83.080078125 495.950195312 165.509765625 495.950195312 266.830078125 c 2
 495.950195312 600.099609375 l 1
 584.400390625 600.099609375 l 1xf0
 584.400390625 -0.1103515625 l 1
 517.040039062 -0.1103515625 l 1
 486.700195312 95.58984375 l 1
 468.190429688 74.1298828125 l 2
 403.719726562 -0.7802734375 296.020507812 -27.2099609375 200.190429688 8.33984375 c 0xe8
EndSplineSet
Validated: 33
EndChar

StartChar: v
Encoding: 118 118 50
Width: 611
VWidth: 0
Flags: W
HStem: -0.110352 21G<249.354 361.646> 580.1 20G<40 133.312 477.688 571>
LayerCount: 2
Fore
SplineSet
484.669921875 600.099609375 m 1
 571 600.099609375 l 1
 354.4296875 -0.1103515625 l 1
 256.5703125 -0.1103515625 l 1
 40 600.099609375 l 1
 126.330078125 600.099609375 l 1
 305.5 86.8603515625 l 1
 484.669921875 600.099609375 l 1
EndSplineSet
Validated: 1
EndChar

StartChar: w
Encoding: 119 119 51
Width: 979
VWidth: 0
Flags: W
HStem: -0.110352 21G<233.238 342.558 637.122 746.441> 580.1 20G<40 133.128 435.81 543.87 846.552 939.68>
LayerCount: 2
Fore
SplineSet
853.030273438 600.099609375 m 1
 939.6796875 600.099609375 l 1
 739.780273438 -0.1103515625 l 1
 643.1796875 -0.1103515625 l 1
 489.83984375 506.120117188 l 1
 336.5 -0.1103515625 l 1
 239.899414062 -0.1103515625 l 1
 40 600.099609375 l 1
 126.649414062 600.099609375 l 1
 290.899414062 93.01953125 l 1
 441.759765625 600.099609375 l 1
 537.919921875 600.099609375 l 1
 688.780273438 93.01953125 l 1
 853.030273438 600.099609375 l 1
EndSplineSet
Validated: 1
EndChar

StartChar: x
Encoding: 120 120 52
Width: 599
VWidth: 0
Flags: W
HStem: -0.110352 21G<40 161.019 438.301 559.32> 580.1 20G<40 161.02 438.301 559.32>
LayerCount: 2
Fore
SplineSet
559.3203125 600.099609375 m 1
 353.299804688 300 l 1
 559.3203125 -0.1103515625 l 1
 452.030273438 -0.1103515625 l 1
 299.66015625 221.860351562 l 1
 147.290039062 -0.1103515625 l 1
 40 -0.1103515625 l 1
 246.020507812 300 l 1
 40 600.099609375 l 1
 147.290039062 600.099609375 l 1
 299.66015625 378.139648438 l 1
 452.030273438 600.099609375 l 1
 559.3203125 600.099609375 l 1
EndSplineSet
Validated: 1
EndChar

StartChar: y
Encoding: 121 121 53
Width: 611
VWidth: 0
Flags: W
HStem: 580.1 20G<40 133.292 477.668 571>
LayerCount: 2
Fore
SplineSet
334.530273438 -58.400390625 m 2
 296.1796875 -165.1796875 189.16015625 -226.200195312 76.6904296875 -207.440429688 c 1
 81.580078125 -129.549804688 l 2
 83.310546875 -129.596679688 86.1201171875 -129.633789062 87.8505859375 -129.633789062 c 0
 102.663085938 -129.633789062 126.393554688 -126.908203125 140.8203125 -123.549804688 c 0
 195.4296875 -110.549804688 233.620117188 -77.669921875 251.259765625 -28.5498046875 c 2
 259 -7 l 1
 40 600.099609375 l 1
 126.309570312 600.099609375 l 1
 305.48046875 86.8603515625 l 1
 484.650390625 600.099609375 l 1
 571 600.099609375 l 1
 334.530273438 -58.400390625 l 2
EndSplineSet
Validated: 33
EndChar

StartChar: z
Encoding: 122 122 54
Width: 574
VWidth: 0
Flags: W
HStem: -0.110352 88.46<133.65 534.92> 511.65 88.4492<40 441.27>
LayerCount: 2
Fore
SplineSet
40 97.740234375 m 1
 441.26953125 511.650390625 l 1
 40 511.650390625 l 1
 40 600.099609375 l 1
 534.919921875 600.099609375 l 1
 534.919921875 502.259765625 l 1
 133.650390625 88.349609375 l 1
 534.919921875 88.349609375 l 1
 534.919921875 -0.1103515625 l 1
 40 -0.1103515625 l 1
 40 97.740234375 l 1
EndSplineSet
Validated: 1
EndChar

StartChar: E
Encoding: 69 69 55
Width: 703
VWidth: 0
Flags: W
HStem: -0.110352 88.46<128.45 663.5> 255.77 88.4609<128.45 525.51> 711.55 88.4502<128.45 663.5>
VStem: 40 88.4502<88.3496 255.77 344.23 711.55>
LayerCount: 2
Fore
SplineSet
128.450195312 88.349609375 m 1
 663.5 88.349609375 l 1
 663.5 -0.1103515625 l 1
 40 -0.1103515625 l 1
 40 800 l 1
 60.830078125 800 l 1
 128.450195312 800 l 1
 663.5 800 l 1
 663.5 711.549804688 l 1
 128.450195312 711.549804688 l 1
 128.450195312 344.23046875 l 1
 525.509765625 344.23046875 l 1
 525.509765625 255.76953125 l 1
 128.450195312 255.76953125 l 1
 128.450195312 88.349609375 l 1
EndSplineSet
Validated: 1
EndChar

StartChar: C
Encoding: 67 67 56
Width: 798
VWidth: 0
Flags: W
HStem: -5.16992 88.46<314.09 525.903> 716.73 88.4395<314.099 525.903>
VStem: 40 88.4492<270.395 529.617>
LayerCount: 2
Fore
SplineSet
681.729492188 254.5703125 m 1
 758.209960938 206.150390625 l 1
 696.139648438 81.259765625 566.659179688 -5.169921875 418.599609375 -5.169921875 c 0
 211 -5.169921875 40 164.650390625 40 372.200195312 c 2
 40 427.799804688 l 2
 40 635.349609375 211.049804688 805.169921875 418.599609375 805.169921875 c 0
 566.659179688 805.169921875 696.139648438 718.740234375 758.209960938 593.870117188 c 1
 681.729492188 545.450195312 l 1
 635.389648438 646.349609375 534.419921875 716.73046875 418.599609375 716.73046875 c 0
 259.540039062 716.73046875 128.44921875 583.969726562 128.44921875 421.73046875 c 2
 128.44921875 378.290039062 l 2
 128.44921875 216.030273438 259.540039062 83.2900390625 418.599609375 83.2900390625 c 0
 534.419921875 83.2900390625 635.389648438 153.669921875 681.729492188 254.5703125 c 1
EndSplineSet
Validated: 1
EndChar

StartChar: D
Encoding: 68 68 57
Width: 801
VWidth: 0
Flags: W
HStem: -0.0996094 88.4297<128.449 485.7> 711.55 88.4502<128.449 485.7>
VStem: 40 88.4492<88.3301 711.55> 672.75 88.4492<275.443 524.445>
LayerCount: 2
Fore
SplineSet
382.599609375 800 m 2
 590.149414062 800 761.19921875 630.190429688 761.19921875 422.639648438 c 2
 761.19921875 377.259765625 l 2
 761.19921875 169.709960938 590.149414062 -0.099609375 382.599609375 -0.099609375 c 2
 40 -0.099609375 l 1
 40 800 l 1
 382.599609375 800 l 2
672.75 383.330078125 m 2
 672.75 416.549804688 l 2
 672.75 578.809570312 541.659179688 711.549804688 382.599609375 711.549804688 c 2
 128.44921875 711.549804688 l 1
 128.44921875 88.330078125 l 1
 382.599609375 88.330078125 l 2
 541.659179688 88.330078125 672.75 221.08984375 672.75 383.330078125 c 2
EndSplineSet
Validated: 1
EndChar

StartChar: F
Encoding: 70 70 58
Width: 703
VWidth: 0
Flags: W
HStem: -0.110352 21G<40 128.45> 255.77 88.4609<128.45 525.51> 711.55 88.4502<128.45 663.5>
VStem: 40 88.4502<-0.110352 255.77 344.23 711.55>
LayerCount: 2
Fore
SplineSet
663.5 711.549804688 m 1
 128.450195312 711.549804688 l 1
 128.450195312 344.23046875 l 1
 525.509765625 344.23046875 l 1
 525.509765625 255.76953125 l 1
 128.450195312 255.76953125 l 1
 128.450195312 -0.1103515625 l 1
 40 -0.1103515625 l 1
 40 800 l 1
 60.830078125 800 l 1
 128.450195312 800 l 1
 663.5 800 l 1
 663.5 711.549804688 l 1
EndSplineSet
Validated: 1
EndChar

StartChar: G
Encoding: 71 71 59
Width: 837
VWidth: 0
Flags: W
HStem: -5.16992 88.46<314.09 524.796> 336.5 88.5<418.6 705.79> 716.73 88.4395<314.099 525.903>
VStem: 40 88.4492<270.395 529.617>
LayerCount: 2
Fore
SplineSet
797.19921875 425 m 1
 797.19921875 372.200195312 l 2
 797.19921875 164.650390625 626.19921875 -5.169921875 418.599609375 -5.169921875 c 0
 211 -5.169921875 40 164.650390625 40 372.200195312 c 2
 40 427.799804688 l 2
 40 635.349609375 211.049804688 805.169921875 418.599609375 805.169921875 c 0
 566.659179688 805.169921875 696.139648438 718.740234375 758.209960938 593.870117188 c 1
 681.729492188 545.450195312 l 1
 635.389648438 646.349609375 534.419921875 716.73046875 418.599609375 716.73046875 c 0
 259.540039062 716.73046875 128.44921875 583.969726562 128.44921875 421.73046875 c 2
 128.44921875 378.290039062 l 2
 128.44921875 216.030273438 259.540039062 83.2900390625 418.599609375 83.2900390625 c 0
 563.76953125 83.2900390625 685.599609375 193.860351562 705.790039062 336.5 c 1
 418.599609375 336.5 l 1
 418.599609375 425 l 1
 797.19921875 425 l 1
EndSplineSet
Validated: 1
EndChar

StartChar: H
Encoding: 72 72 60
Width: 779
VWidth: 0
Flags: W
HStem: -0.110352 21G<40 128.45 651.03 739.48> 255.77 88.4609<128.45 651.03> 780 20G<40 128.45 651.03 739.48>
VStem: 40 88.4502<-0.110352 255.77 344.23 800> 651.03 88.4502<-0.110352 255.77 344.23 800>
LayerCount: 2
Fore
SplineSet
651.030273438 800 m 1
 739.48046875 800 l 1
 739.48046875 -0.1103515625 l 1
 651.030273438 -0.1103515625 l 1
 651.030273438 255.76953125 l 1
 128.450195312 255.76953125 l 1
 128.450195312 -0.1103515625 l 1
 40 -0.1103515625 l 1
 40 800 l 1
 128.450195312 800 l 1
 128.450195312 344.23046875 l 1
 651.030273438 344.23046875 l 1
 651.030273438 800 l 1
EndSplineSet
Validated: 1
EndChar

StartChar: I
Encoding: 73 73 61
Width: 168
VWidth: 0
Flags: W
HStem: -0.110352 21G<40 128.45> 780 20G<40 128.45>
VStem: 40 88.4502<-0.110352 800>
LayerCount: 2
Fore
SplineSet
40 -0.1103515625 m 1
 40 800 l 1
 128.450195312 800 l 1
 128.450195312 -0.1103515625 l 1
 40 -0.1103515625 l 1
EndSplineSet
Validated: 1
EndChar

StartChar: J
Encoding: 74 74 62
Width: 401
VWidth: 0
Flags: W
HStem: 0 88.4502<40 184.992> 711.55 88.4502<142.5 273.42>
VStem: 273.42 88.4502<176.878 711.55>
LayerCount: 2
Fore
SplineSet
142.5 800 m 1
 361.870117188 800 l 1
 361.870117188 243.580078125 l 2
 361.870117188 109 252.870117188 0 118.290039062 0 c 2
 40 0 l 1
 40 88.4501953125 l 1
 104.9296875 88.4501953125 l 2
 197.930664062 88.455078125 273.415039062 163.939453125 273.419921875 256.940429688 c 2
 273.419921875 711.549804688 l 1
 142.5 711.549804688 l 1
 142.5 800 l 1
EndSplineSet
Validated: 1
EndChar

StartChar: K
Encoding: 75 75 63
Width: 649
VWidth: 0
Flags: W
HStem: -0.110352 21G<40 128.45 464.28 609.37> 780 20G<40 128.45 464.28 609.37>
VStem: 40 88.4502<-0.110352 355.72 444.17 800>
LayerCount: 2
Fore
SplineSet
209.3203125 399.950195312 m 1
 609.370117188 -0.1103515625 l 1
 484.280273438 -0.1103515625 l 1
 146.76953125 337.400390625 l 1
 128.450195312 355.719726562 l 1
 128.450195312 -0.1103515625 l 1
 40 -0.1103515625 l 1
 40 800 l 1
 128.450195312 800 l 1
 128.450195312 444.169921875 l 1
 146.76953125 462.490234375 l 1
 484.280273438 800 l 1
 609.370117188 800 l 1
 209.3203125 399.950195312 l 1
EndSplineSet
Validated: 1
EndChar

StartChar: L
Encoding: 76 76 64
Width: 695
VWidth: 0
Flags: W
HStem: -0.110352 88.5605<128.45 655.5> 780 20G<40 128.45>
VStem: 40 88.4502<88.4502 800>
LayerCount: 2
Fore
SplineSet
655.5 88.4501953125 m 1
 655.5 0 l 1
 40 -0.1103515625 l 1
 40 0 l 1
 40 800 l 1
 128.450195312 800 l 1
 128.450195312 88.4501953125 l 1
 655.5 88.4501953125 l 1
EndSplineSet
Validated: 1
EndChar

StartChar: M
Encoding: 77 77 65
Width: 844
VWidth: 0
Flags: W
HStem: -0.110352 21G<40 128.45 716.37 804.82> 780 20G<40 141.802 703.018 804.82>
VStem: 40 88.4502<-0.110352 640.69> 716.37 88.4502<-0.110352 640.69>
LayerCount: 2
Fore
SplineSet
716.370117188 800 m 1
 804.8203125 800 l 1
 804.8203125 -0.1103515625 l 1
 716.370117188 -0.1103515625 l 1
 716.370117188 640.690429688 l 1
 475.58984375 280.030273438 l 1
 422.41015625 200.379882812 l 1
 369.23046875 280.030273438 l 1
 128.450195312 640.690429688 l 1
 128.450195312 -0.1103515625 l 1
 40 -0.1103515625 l 1
 40 800 l 1
 128.450195312 800 l 1
 422.41015625 359.6796875 l 1
 716.370117188 800 l 1
EndSplineSet
Validated: 1
EndChar

StartChar: N
Encoding: 78 78 66
Width: 795
VWidth: 0
Flags: W
HStem: -0.209961 21.0996G<40 128.46 667.021 755.48> 780 19.9004G<40 128.46 667.021 755.48>
VStem: 40 88.46<-0.209961 659.58 799.38 799.9> 667.021 88.46<-0.110352 0.410156 140.21 800>
LayerCount: 2
Fore
SplineSet
667.020507812 800 m 1
 755.48046875 800 l 1
 755.48046875 -0.1103515625 l 1
 667.440429688 -0.1103515625 l 1
 667.020507812 -0.1103515625 l 1
 667.020507812 0.41015625 l 1
 128.459960938 659.580078125 l 1
 128.459960938 -0.2099609375 l 1
 40 -0.2099609375 l 1
 40 799.900390625 l 1
 128.040039062 799.900390625 l 1
 128.459960938 799.900390625 l 1
 128.459960938 799.379882812 l 1
 667.020507812 140.209960938 l 1
 667.020507812 800 l 1
EndSplineSet
Validated: 1
EndChar

StartChar: O
Encoding: 79 79 67
Width: 837
VWidth: 0
Flags: W
HStem: -5.16992 88.4395<314.09 523.109> 716.73 88.4395<314.099 523.101>
VStem: 40 88.4492<270.37 529.617> 708.75 88.4492<270.383 529.63>
LayerCount: 2
Fore
SplineSet
418.599609375 805.169921875 m 0
 626.149414062 805.169921875 797.19921875 635.349609375 797.19921875 427.799804688 c 2
 797.19921875 372.200195312 l 2
 797.19921875 164.650390625 626.19921875 -5.169921875 418.599609375 -5.169921875 c 0
 211 -5.169921875 40 164.650390625 40 372.200195312 c 2
 40 427.799804688 l 2
 40 635.349609375 211.049804688 805.169921875 418.599609375 805.169921875 c 0
708.75 378.26953125 m 2
 708.75 421.73046875 l 2
 708.75 584 577.659179688 716.73046875 418.599609375 716.73046875 c 0
 259.540039062 716.73046875 128.44921875 583.969726562 128.44921875 421.73046875 c 2
 128.44921875 378.26953125 l 2
 128.44921875 216 259.540039062 83.26953125 418.599609375 83.26953125 c 0
 577.659179688 83.26953125 708.75 216.030273438 708.75 378.26953125 c 2
EndSplineSet
Validated: 1
EndChar

StartChar: T
Encoding: 84 84 68
Width: 779
VWidth: 0
Flags: W
HStem: -0.110352 21G<345.51 433.971> 711.55 88.4502<40 345.51 433.971 739.48>
VStem: 345.51 88.4609<-0.110352 711.55>
LayerCount: 2
Fore
SplineSet
739.48046875 800 m 1
 739.48046875 711.549804688 l 1
 433.970703125 711.549804688 l 1
 433.970703125 -0.1103515625 l 1
 345.509765625 -0.1103515625 l 1
 345.509765625 711.549804688 l 1
 40 711.549804688 l 1
 40 800 l 1
 345.509765625 800 l 1
 433.970703125 800 l 1
 739.48046875 800 l 1
EndSplineSet
Validated: 1
EndChar

StartChar: Y
Encoding: 89 89 69
Width: 848
VWidth: 0
Flags: W
HStem: 0 21G<380.069 468.53> 780.1 20G<40 156.253 692.346 808.6>
VStem: 380.069 88.4609<0 248.63>
LayerCount: 2
Fore
SplineSet
808.599609375 800.099609375 m 1
 468.530273438 248.629882812 l 1
 468.530273438 0 l 1
 380.069335938 0 l 1
 380.069335938 248.629882812 l 1
 40 800.099609375 l 1
 143.919921875 800.099609375 l 1
 424.299804688 345.4296875 l 1
 704.6796875 800.099609375 l 1
 808.599609375 800.099609375 l 1
EndSplineSet
Validated: 1
EndChar

StartChar: Z
Encoding: 90 90 70
Width: 735
VWidth: 0
Flags: W
HStem: 0 88.4502<156.85 695.039> 711.55 88.4502<40 578.189>
LayerCount: 2
Fore
SplineSet
695.0390625 711.580078125 m 1
 156.849609375 88.4501953125 l 1
 695.0390625 88.4501953125 l 1
 695.0390625 0 l 1
 40 0 l 1
 40 88.419921875 l 1
 578.189453125 711.549804688 l 1
 40 711.549804688 l 1
 40 800 l 1
 695.0390625 800 l 1
 695.0390625 711.580078125 l 1
EndSplineSet
Validated: 1
EndChar

StartChar: A
Encoding: 65 65 71
Width: 914
VWidth: 0
Flags: W
HStem: 0 21G<40 146.574 768.366 874.94> 255.77 88.4609<295.78 619.15> 780 20G<398.956 515.984>
LayerCount: 2
Fore
SplineSet
40 0 m 1
 408.16015625 800 l 1
 506.780273438 800 l 1
 874.940429688 0 l 1
 777.5703125 0 l 1
 659.860351562 255.76953125 l 1
 255.0703125 255.76953125 l 1
 137.370117188 0 l 1
 40 0 l 1
295.780273438 344.23046875 m 1
 619.150390625 344.23046875 l 1
 457.469726562 695.5703125 l 1
 295.780273438 344.23046875 l 1
EndSplineSet
Validated: 1
EndChar

StartChar: B
Encoding: 66 66 72
Width: 725
VWidth: 0
Flags: W
HStem: 0 88.4502<128.45 534.688> 355.77 88.4609<128.45 535.475> 711.55 88.5498<128.45 534.688>
VStem: 40 88.4502<88.4502 355.77 444.23 711.55> 597.11 88.4502<150.872 292.692 507.308 649.128>
LayerCount: 2
Fore
SplineSet
685.560546875 577.889648438 m 1
 685.560546875 577.838867188 685.560546875 577.755859375 685.560546875 577.704101562 c 0
 685.560546875 516.333007812 645.65234375 436.721679688 596.48046875 400 c 1
 645.65234375 363.278320312 685.560546875 283.666992188 685.560546875 222.295898438 c 0
 685.560546875 222.244140625 685.560546875 222.161132812 685.560546875 222.110351562 c 1
 685.560546875 99.4404296875 586.120117188 0 463.450195312 0 c 2
 40 0 l 1
 40 800.099609375 l 1
 463.450195312 800 l 2
 586.120117188 800 685.560546875 700.559570312 685.560546875 577.889648438 c 1
597.110351562 222.110351562 m 0
 597.110351562 295.890625 537.23046875 355.76953125 463.450195312 355.76953125 c 2
 128.450195312 355.76953125 l 1
 128.450195312 88.4501953125 l 1
 463.450195312 88.4501953125 l 2
 537.23046875 88.4501953125 597.110351562 148.330078125 597.110351562 222.110351562 c 0
597.110351562 577.889648438 m 0
 597.110351562 651.669921875 537.23046875 711.549804688 463.450195312 711.549804688 c 1
 128.450195312 711.549804688 l 1
 128.450195312 444.23046875 l 1
 463.450195312 444.23046875 l 2
 537.23046875 444.23046875 597.110351562 504.109375 597.110351562 577.889648438 c 0
EndSplineSet
Validated: 1
EndChar

StartChar: P
Encoding: 80 80 73
Width: 725
VWidth: 0
Flags: W
HStem: -0.0996094 21G<40 128.45> 252.59 88.4102<128.45 493.25> 711.55 88.4502<128.45 493.25>
VStem: 40 88.4502<-0.0996094 252.59 341 711.55> 597.11 88.4502<443.428 609.158>
LayerCount: 2
Fore
SplineSet
411.860351562 800 m 2
 563.020507812 800 685.560546875 677.459960938 685.560546875 526.290039062 c 1
 685.560546875 375.129882812 563.020507812 252.58984375 411.860351562 252.58984375 c 2
 128.450195312 252.58984375 l 1
 128.450195312 -0.099609375 l 1
 40 -0.099609375 l 1
 40 800 l 1
 411.860351562 800 l 2
597.110351562 526.290039062 m 0
 597.110351562 628.610351562 514.169921875 711.549804688 411.860351562 711.549804688 c 2
 128.450195312 711.549804688 l 1
 128.450195312 341 l 1
 411.860351562 341 l 2
 514.169921875 341 597.110351562 424 597.110351562 526.290039062 c 0
EndSplineSet
Validated: 1
EndChar

StartChar: Q
Encoding: 81 81 74
Width: 883
VWidth: 0
Flags: W
HStem: -5.16992 88.46<313.21 526.636 759.281 843.6> 252.59 88.4541<334.967 502.212> 716.73 88.4395<314.104 523.105>
VStem: 40 88.46<278.179 378.27 378.29 529.617> 708.75 88.46<274.619 529.63>
LayerCount: 2
Fore
SplineSet
843.599609375 83.2900390625 m 2
 843.599609375 -5.169921875 l 2
 843.520507812 -5.169921875 843.392578125 -5.169921875 843.313476562 -5.169921875 c 0
 780.83203125 -5.169921875 693.331054688 29.7294921875 648 72.73046875 c 1
 591.982421875 29.7412109375 489.2109375 -5.158203125 418.599609375 -5.169921875 c 0
 211 -5.169921875 40 164.650390625 40 372.200195312 c 2
 40 427.799804688 l 2
 40 635.349609375 211.049804688 805.169921875 418.599609375 805.169921875 c 0
 626.149414062 805.169921875 797.19921875 635.349609375 797.209960938 427.799804688 c 2
 797.209960938 372.200195312 l 2
 797.209960938 282.299804688 765.119140625 199.490234375 711.869140625 134.490234375 c 1
 742.630859375 106.227539062 801.499023438 83.2900390625 843.272460938 83.2900390625 c 0
 843.36328125 83.2900390625 843.509765625 83.2900390625 843.599609375 83.2900390625 c 2
128.459960938 378.290039062 m 1
 128.44921875 378.26953125 l 2
 128.44921875 378.2109375 128.44921875 378.114257812 128.44921875 378.055664062 c 0
 128.44921875 327.678710938 151.481445312 253.012695312 179.859375 211.389648438 c 1
 226.318359375 282.958984375 333.2734375 341.043945312 418.599609375 341.043945312 c 0
 503.92578125 341.043945312 610.880859375 282.958984375 657.33984375 211.389648438 c 1
 685.717773438 253.009765625 708.75 327.671875 708.75 378.045898438 c 0
 708.75 378.108398438 708.75 378.208007812 708.75 378.26953125 c 2
 708.75 421.73046875 l 2
 708.75 584 577.669921875 716.73046875 418.609375 716.73046875 c 0
 259.549804688 716.73046875 128.459960938 583.969726562 128.459960938 421.73046875 c 2
 128.459960938 378.290039062 l 1
243.239257812 143.849609375 m 1
 292.109375 105.900390625 352.939453125 83.2900390625 418.569335938 83.2900390625 c 0
 484.19921875 83.2900390625 545.059570312 105.849609375 593.919921875 143.849609375 c 1
 586.000976562 159.642578125 569.424804688 182.58984375 556.919921875 195.0703125 c 0
 525.338867188 226.821289062 463.362304688 252.58984375 418.580078125 252.58984375 c 0
 373.796875 252.58984375 311.8203125 226.821289062 280.239257812 195.0703125 c 0
 267.73828125 182.586914062 251.162109375 159.640625 243.239257812 143.849609375 c 1
EndSplineSet
Validated: 1
EndChar

StartChar: R
Encoding: 82 82 75
Width: 725
VWidth: 0
Flags: W
HStem: -0.0996094 21G<40 128.45 559.467 678.78> 252.59 88.4102<128.45 405.391> 711.55 88.4502<128.45 493.25>
VStem: 40 88.4502<-0.0996094 252.59 341 711.55> 597.11 88.4004<441.942 607.685>
LayerCount: 2
Fore
SplineSet
572.709960938 -0.099609375 m 1
 405.390625 252.58984375 l 1
 128.450195312 252.58984375 l 1
 128.450195312 -0.099609375 l 1
 40 -0.099609375 l 1
 40 800 l 1
 411.860351562 800 l 2
 563.020507812 800 685.560546875 677.459960938 685.510742188 526.290039062 c 1
 685.510742188 406.530273438 608.640625 304.75 501.510742188 267.629882812 c 1
 678.780273438 -0.099609375 l 1
 572.709960938 -0.099609375 l 1
128.450195312 711.549804688 m 1
 128.450195312 341 l 1
 411.860351562 341 l 2
 514.169921875 341 597.110351562 423.969726562 597.110351562 526.290039062 c 0
 597.110351562 628.610351562 514.169921875 711.549804688 411.860351562 711.549804688 c 2
 128.450195312 711.549804688 l 1
EndSplineSet
Validated: 33
EndChar

StartChar: U
Encoding: 85 85 76
Width: 735
VWidth: 0
Flags: W
HStem: -0.0996094 88.4893<269.652 465.398> 780 20G<40 128.55 606.55 695>
VStem: 40 88.5498<230.003 800> 606.55 88.4502<230.003 800>
LayerCount: 2
Fore
SplineSet
606.549804688 800 m 1
 695 800 l 1
 695 327.389648438 l 2
 695 146.51953125 548.370117188 -0.099609375 367.5 -0.099609375 c 1
 186.629882812 -0.099609375 40 146.51953125 40 327.389648438 c 2
 40 800 l 1
 128.549804688 800 l 1
 128.549804688 327.389648438 l 2
 128.549804688 195.389648438 235.549804688 88.3896484375 367.549804688 88.3896484375 c 1
 499.549804688 88.3896484375 606.549804688 195.389648438 606.549804688 327.389648438 c 2
 606.549804688 800 l 1
EndSplineSet
Validated: 1
EndChar

StartChar: V
Encoding: 86 86 77
Width: 925
VWidth: 0
Flags: W
HStem: 0 21G<404.474 520.805> 780 20G<40 146.976 778.304 885.279>
LayerCount: 2
Fore
SplineSet
787.649414062 800 m 1
 885.279296875 800 l 1
 511.459960938 0 l 1
 413.819335938 0 l 1
 40 800 l 1
 137.629882812 800 l 1
 462.639648438 104.469726562 l 1
 787.649414062 800 l 1
EndSplineSet
Validated: 1
EndChar

StartChar: W
Encoding: 87 87 78
Width: 1080
VWidth: 0
Flags: W
HStem: 0 21G<243.892 345.879 734.121 836.235> 580 20G<487.406 592.594> 780 20G<40 133.55 946.45 1040>
LayerCount: 2
Fore
SplineSet
951.549804688 800 m 1
 1040 800 l 1
 831.009765625 0 l 1
 742.559570312 0 l 1
 540 480.0703125 l 1
 337.440429688 0 l 1
 249.120117188 0 l 1
 40 800 l 1
 128.450195312 800 l 1
 299.259765625 130.08984375 l 1
 495.76953125 600 l 1
 584.23046875 600 l 1
 780.740234375 130.08984375 l 1
 951.549804688 800 l 1
EndSplineSet
Validated: 1
EndChar

StartChar: X
Encoding: 88 88 79
Width: 855
VWidth: 0
Flags: W
HStem: -0.110352 21G<40 171.249 684.36 815.6> 780 20G<40 171.249 684.36 815.6>
LayerCount: 2
Fore
SplineSet
485.16015625 399.950195312 m 1
 815.599609375 -0.1103515625 l 1
 700.879882812 -0.1103515625 l 1
 427.799804688 330.5 l 1
 154.729492188 -0.1103515625 l 1
 40 -0.1103515625 l 1
 370.439453125 399.950195312 l 1
 40 800 l 1
 154.729492188 800 l 1
 427.799804688 469.389648438 l 1
 700.879882812 800 l 1
 815.599609375 800 l 1
 485.16015625 399.950195312 l 1
EndSplineSet
Validated: 1
EndChar

StartChar: exclam
Encoding: 33 33 80
Width: 174
VWidth: 0
Flags: W
HStem: -0.110352 94.7803<47.4658 127.314> 780 20G<43.1592 131.609>
VStem: 40 94.7793<7.35569 87.2042 199.79 800>
LayerCount: 2
Fore
SplineSet
43.1591796875 199.790039062 m 1
 43.1591796875 800 l 1
 131.609375 800 l 1
 131.609375 199.790039062 l 1
 43.1591796875 199.790039062 l 1
40 47.2802734375 m 0
 40 73.453125 61.216796875 94.669921875 87.3896484375 94.669921875 c 0
 113.5625 94.669921875 134.779296875 73.453125 134.779296875 47.2802734375 c 0
 134.779296875 21.107421875 113.5625 -0.1103515625 87.3896484375 -0.1103515625 c 0
 61.216796875 -0.1103515625 40 21.107421875 40 47.2802734375 c 0
EndSplineSet
Validated: 1
EndChar

StartChar: numbersign
Encoding: 35 35 81
Width: 680
VWidth: 0
Flags: W
HStem: -0.0996094 21G<190.399 271.21 408.989 489.8> 150.3 80.8105<40 190.399 271.21 408.989 489.8 640.199> 368.89 80.8105<40 190.399 271.21 408.989 489.8 640.199> 580.1 20G<190.399 271.21 408.989 489.8>
VStem: 190.399 80.8105<-0.0996094 150.3 231.11 368.89 449.7 600.1> 408.989 80.8105<-0.0996094 150.3 231.11 368.89 449.7 600.1>
LayerCount: 2
Fore
SplineSet
640.19921875 368.889648438 m 1
 489.799804688 368.889648438 l 1
 489.799804688 231.110351562 l 1
 640.19921875 231.110351562 l 1
 640.19921875 150.299804688 l 1
 489.799804688 150.299804688 l 1
 489.799804688 -0.099609375 l 1
 408.989257812 -0.099609375 l 1
 408.989257812 150.299804688 l 1
 271.209960938 150.299804688 l 1
 271.209960938 -0.099609375 l 1
 190.399414062 -0.099609375 l 1
 190.399414062 150.299804688 l 1
 40 150.299804688 l 1
 40 231.110351562 l 1
 190.399414062 231.110351562 l 1
 190.399414062 368.889648438 l 1
 40 368.889648438 l 1
 40 449.700195312 l 1
 190.399414062 449.700195312 l 1
 190.399414062 600.099609375 l 1
 271.209960938 600.099609375 l 1
 271.209960938 449.700195312 l 1
 408.989257812 449.700195312 l 1
 408.989257812 600.099609375 l 1
 489.799804688 600.099609375 l 1
 489.799804688 449.700195312 l 1
 640.19921875 449.700195312 l 1
 640.19921875 368.889648438 l 1
408.989257812 231.110351562 m 1
 408.989257812 368.889648438 l 1
 271.209960938 368.889648438 l 1
 271.209960938 231.110351562 l 1
 408.989257812 231.110351562 l 1
EndSplineSet
Validated: 1
EndChar

StartChar: dollar
Encoding: 36 36 82
Width: 589
VWidth: 0
Flags: W
HStem: -0.0996094 168.77<251.427 338.13> 95.6104 73.0596<190.607 250.716 339.177 396.572> 631.22 168.78<251.761 338.466> 631.22 73.0605<193.32 250.716 339.177 399.286>
VStem: 250.716 88.4609<-0.0996094 97.7776 702.211 800>
LayerCount: 2
Fore
SplineSet
303.026367188 440.360351562 m 0x28
 421.946289062 418.509765625 556.706054688 393.75 549.616210938 258.759765625 c 0
 548.786132812 253.690429688 540.946289062 211.51953125 506.616210938 171.690429688 c 0
 468.056640625 126.940429688 411.875976562 101.48046875 339.176757812 95.6103515625 c 1x68
 339.176757812 -0.099609375 l 1
 250.715820312 -0.099609375 l 1
 250.715820312 97.23046875 l 1
 173.526367188 105.5 116.926757812 129.8203125 82.2763671875 169.8203125 c 0
 64.712890625 190.094726562 48.77734375 228.255859375 46.7060546875 255 c 1
 124.846679688 263.3203125 l 1
 128.420898438 251.741210938 137.595703125 234.771484375 145.326171875 225.440429688 c 0
 157.776367188 210.190429688 174.266601562 197.75 194.326171875 188.440429688 c 0
 218.49609375 177.23046875 247.946289062 170.580078125 281.946289062 168.669921875 c 0
 315.946289062 166.759765625 345.946289062 170.0703125 371.236328125 178.5 c 0
 392.206054688 185.5 409.946289062 196 424.116210938 209.75 c 0
 448.38671875 233.41015625 453.286132812 258.139648438 453.755859375 260.879882812 c 2
 453.916015625 261.790039062 l 1
 453.916015625 262.709960938 l 2
 454.846679688 279.219726562 449.856445312 293.780273438 439.076171875 306 c 0
 430.176757812 316.080078125 417.426757812 324.48046875 400.076171875 331.66015625 c 0
 370.306640625 344 329.875976562 351.490234375 287.076171875 359.419921875 c 0
 168.06640625 381.469726562 33.1962890625 406.450195312 40.2666015625 541.129882812 c 0
 41.1064453125 546.209960938 48.9462890625 588.370117188 83.2666015625 628.209960938 c 0
 121.8359375 672.950195312 178.016601562 698.419921875 250.715820312 704.280273438 c 1x98
 250.715820312 800 l 1
 339.176757812 800 l 1
 339.176757812 702.610351562 l 1
 416.366210938 694.349609375 472.946289062 670 507.616210938 630 c 0
 525.17578125 609.727539062 541.102539062 571.571289062 543.166015625 544.830078125 c 1
 465.056640625 536.580078125 l 1
 461.475585938 548.155273438 452.296875 565.120117188 444.56640625 574.450195312 c 0
 432.116210938 589.700195312 415.625976562 602.150390625 395.56640625 611.450195312 c 0
 371.396484375 622.66015625 341.946289062 629.309570312 307.946289062 631.219726562 c 0
 273.946289062 633.129882812 243.946289062 629.830078125 218.646484375 621.389648438 c 0
 197.676757812 614.389648438 179.896484375 603.879882812 165.795898438 590.139648438 c 0
 141.526367188 566.48046875 136.625976562 541.75 136.15625 539.009765625 c 2
 135.99609375 538.099609375 l 1
 135.946289062 537.1796875 l 2
 135.016601562 520.610351562 140.016601562 506 150.846679688 493.740234375 c 0
 159.696289062 483.620117188 172.4765625 475.200195312 189.846679688 468.009765625 c 0
 219.686523438 455.669921875 260.166015625 448.23046875 303.026367188 440.360351562 c 0x28
EndSplineSet
Validated: 33
EndChar

StartChar: percent
Encoding: 37 37 83
Width: 760
VWidth: 0
Flags: W
HStem: 5.34961 92.1904<512.055 613.104> 251.17 92.1904<512.055 613.102> 403.54 92.1904<147.399 248.443> 649.36 92.1895<147.399 248.445>
VStem: 40 86.1494<517.983 627.107> 269.699 86.1504<517.983 627.107> 404.649 86.1504<119.792 228.923> 634.359 86.1406<119.792 228.946>
LayerCount: 2
Fore
SplineSet
118.26953125 0 m 1
 541.629882812 746.900390625 l 1
 642.239257812 746.900390625 l 1
 218.869140625 0 l 1
 118.26953125 0 l 1
197.919921875 741.549804688 m 0
 284.5 741.549804688 355.849609375 670.719726562 355.849609375 584.139648438 c 2
 355.849609375 560.950195312 l 2
 355.849609375 474.370117188 284.489257812 403.540039062 197.919921875 403.540039062 c 0
 111.349609375 403.540039062 40 474.370117188 40 560.950195312 c 2
 40 584.139648438 l 2
 40 670.719726562 111.349609375 741.549804688 197.919921875 741.549804688 c 0
269.69921875 567.280273438 m 2
 269.69921875 577.8203125 l 2
 269.69921875 617.169921875 237.26953125 649.360351562 197.919921875 649.360351562 c 0
 158.569335938 649.360351562 126.149414062 617.169921875 126.149414062 577.8203125 c 2
 126.149414062 567.280273438 l 2
 126.149414062 527.9296875 158.569335938 495.73046875 197.919921875 495.73046875 c 0
 237.26953125 495.73046875 269.69921875 527.9296875 269.69921875 567.280273438 c 2
562.580078125 343.360351562 m 0
 649.149414062 343.360351562 720.5 272.530273438 720.5 186 c 2
 720.5 162.759765625 l 2
 720.5 76.1796875 649.159179688 5.349609375 562.580078125 5.349609375 c 0
 476 5.349609375 404.649414062 76.1796875 404.649414062 162.759765625 c 2
 404.649414062 185.959960938 l 2
 404.649414062 272.530273438 476 343.360351562 562.580078125 343.360351562 c 0
634.359375 169.08984375 m 2
 634.359375 179.629882812 l 2
 634.359375 218.98046875 601.9296875 251.169921875 562.580078125 251.169921875 c 0
 523.229492188 251.169921875 490.799804688 218.98046875 490.799804688 179.629882812 c 2
 490.799804688 169.08984375 l 2
 490.799804688 129.740234375 523.229492188 97.5400390625 562.580078125 97.5400390625 c 0
 601.9296875 97.5400390625 634.359375 129.740234375 634.359375 169.08984375 c 2
EndSplineSet
Validated: 1
EndChar

StartChar: parenleft
Encoding: 40 40 84
Width: 334
VWidth: 0
Flags: W
HStem: 780 20G<211.485 282.44>
VStem: 40 88.4502<133.06 570.299>
LayerCount: 2
Fore
SplineSet
128.450195312 449.66015625 m 2
 128.450195312 254.389648438 l 2
 128.450195312 38.1396484375 294.450195312 -28.7001953125 294.450195312 -28.7001953125 c 1
 277.150390625 -94 l 1
 145.509765625 -80.3896484375 40 80 40 274.120117188 c 2
 40 433.26953125 l 1
 40.509765625 626.780273438 145.8203125 786.419921875 277.150390625 800 c 1
 294.419921875 734.700195312 l 1
 294.419921875 734.700195312 128.450195312 665.91015625 128.450195312 449.66015625 c 2
EndSplineSet
Validated: 524293
EndChar

StartChar: parenright
Encoding: 41 41 85
Width: 334
VWidth: 0
Flags: W
HStem: 780 20G<52.0012 123.12>
VStem: 206 88.4502<135.701 572.94>
LayerCount: 2
Fore
SplineSet
206 256.33984375 m 2
 206 451.610351562 l 2
 206 667.860351562 40 734.700195312 40 734.700195312 c 1
 57.2998046875 800 l 1
 188.940429688 786.389648438 294.450195312 626 294.450195312 431.879882812 c 2
 294.450195312 272.73046875 l 1
 293.940429688 79.2197265625 188.629882812 -80.419921875 57.2998046875 -94 c 1
 40.0302734375 -28.7001953125 l 1
 40.0302734375 -28.7001953125 206 40.08984375 206 256.33984375 c 2
EndSplineSet
Validated: 524293
EndChar

StartChar: copyright
Encoding: 169 169 86
Width: 845
VWidth: 0
Flags: W
HStem: -110.37 61.4727<318.047 527.434> 67.6396 68.96<353.122 500.637> 463.4 68.96<353.122 500.637> 648.897 61.4727<318.047 527.434>
VStem: 40 64.7402<157.774 442.226> 211.05 68.96<209.223 390.777> 740.74 64.7402<157.774 442.226>
LayerCount: 2
Fore
SplineSet
422.740234375 710.370117188 m 0
 633.740234375 710.370117188 805.48046875 539.25 805.48046875 328.919921875 c 2
 805.48046875 271.080078125 l 2
 805.48046875 60.75 633.740234375 -110.370117188 422.740234375 -110.370117188 c 0
 211.740234375 -110.370117188 40 60.75 40 271.080078125 c 2
 40 328.919921875 l 2
 40 539.25 211.740234375 710.370117188 422.740234375 710.370117188 c 0
740.740234375 264.620117188 m 2
 740.740234375 335.370117188 l 2
 740.740234375 335.483398438 740.740234375 335.666992188 740.740234375 335.780273438 c 0
 740.740234375 370.71875 729.486328125 425.1015625 715.620117188 457.169921875 c 0
 702.154296875 488.374023438 671.538085938 533.016601562 647.280273438 556.8203125 c 0
 595.728515625 607.646484375 495.134765625 648.897460938 422.740234375 648.897460938 c 0
 350.345703125 648.897460938 249.751953125 607.646484375 198.200195312 556.8203125 c 0
 173.942382812 533.016601562 143.326171875 488.374023438 129.860351562 457.169921875 c 0
 115.994140625 425.1015625 104.740234375 370.71875 104.740234375 335.780273438 c 0
 104.740234375 335.666992188 104.740234375 335.483398438 104.740234375 335.370117188 c 2
 104.740234375 264.620117188 l 2
 104.740234375 264.508789062 104.740234375 264.329101562 104.740234375 264.217773438 c 0
 104.740234375 229.280273438 115.994140625 174.8984375 129.860351562 142.830078125 c 0
 143.326171875 111.625976562 173.942382812 66.9833984375 198.200195312 43.1796875 c 0
 249.751953125 -7.646484375 350.345703125 -48.8974609375 422.740234375 -48.8974609375 c 0
 495.134765625 -48.8974609375 595.728515625 -7.646484375 647.280273438 43.1796875 c 0
 671.538085938 66.9833984375 702.154296875 111.625976562 715.620117188 142.830078125 c 0
 729.486328125 174.8984375 740.740234375 229.280273438 740.740234375 264.217773438 c 0
 740.740234375 264.329101562 740.740234375 264.508789062 740.740234375 264.620117188 c 2
427.450195312 463.400390625 m 0
 346.150390625 463.400390625 280.009765625 397.259765625 280.009765625 316 c 2
 280.009765625 284.040039062 l 2
 280.009765625 202.740234375 346.150390625 136.599609375 427.450195312 136.599609375 c 0
 427.495117188 136.599609375 427.568359375 136.599609375 427.61328125 136.599609375 c 0
 467.584960938 136.599609375 519.76171875 162.346679688 544.080078125 194.0703125 c 1
 593.23046875 144.919921875 l 1
 557.326171875 102.458007812 483.056640625 67.8369140625 427.450195312 67.6396484375 c 0
 308.129882812 67.6396484375 211.049804688 164.379882812 211.049804688 283.299804688 c 2
 211.049804688 316.700195312 l 2
 211.049804688 435.620117188 308.129882812 532.360351562 427.450195312 532.360351562 c 0
 483.056640625 532.163085938 557.326171875 497.541992188 593.23046875 455.080078125 c 1
 544.080078125 405.9296875 l 1
 519.76171875 437.653320312 467.584960938 463.400390625 427.61328125 463.400390625 c 0
 427.568359375 463.400390625 427.495117188 463.400390625 427.450195312 463.400390625 c 0
EndSplineSet
Validated: 1
EndChar

StartChar: registered
Encoding: 174 174 87
Width: 845
VWidth: 0
Flags: W
HStem: -110.37 61.4727<318.047 527.434> 452.79 64.7402<345.28 503.625> 648.897 61.4727<318.047 527.434>
VStem: 40 64.7402<157.774 442.226> 280.57 64.71<82.4697 232.47 281.67 452.79> 534.13 64.7402<311.247 422.284> 740.74 64.7402<157.774 442.226>
LayerCount: 2
Fore
SplineSet
422.740234375 710.370117188 m 0
 633.740234375 710.370117188 805.48046875 539.25 805.48046875 328.919921875 c 2
 805.48046875 271.080078125 l 2
 805.48046875 60.75 633.740234375 -110.370117188 422.740234375 -110.370117188 c 0
 211.740234375 -110.370117188 40 60.75 40 271.080078125 c 2
 40 328.919921875 l 2
 40 539.25 211.740234375 710.370117188 422.740234375 710.370117188 c 0
740.740234375 264.620117188 m 2
 740.740234375 335.370117188 l 2
 740.740234375 335.483398438 740.740234375 335.666992188 740.740234375 335.780273438 c 0
 740.740234375 370.71875 729.486328125 425.1015625 715.620117188 457.169921875 c 0
 702.154296875 488.374023438 671.538085938 533.016601562 647.280273438 556.8203125 c 0
 595.728515625 607.646484375 495.134765625 648.897460938 422.740234375 648.897460938 c 0
 350.345703125 648.897460938 249.751953125 607.646484375 198.200195312 556.8203125 c 0
 173.942382812 533.016601562 143.326171875 488.374023438 129.860351562 457.169921875 c 0
 115.994140625 425.1015625 104.740234375 370.71875 104.740234375 335.780273438 c 0
 104.740234375 335.666992188 104.740234375 335.483398438 104.740234375 335.370117188 c 2
 104.740234375 264.620117188 l 2
 104.740234375 264.508789062 104.740234375 264.329101562 104.740234375 264.217773438 c 0
 104.740234375 229.280273438 115.994140625 174.8984375 129.860351562 142.830078125 c 0
 143.326171875 111.625976562 173.942382812 66.9833984375 198.200195312 43.1796875 c 0
 249.751953125 -7.646484375 350.345703125 -48.8974609375 422.740234375 -48.8974609375 c 0
 495.134765625 -48.8974609375 595.728515625 -7.646484375 647.280273438 43.1796875 c 0
 671.538085938 66.9833984375 702.154296875 111.625976562 715.620117188 142.830078125 c 0
 729.486328125 174.8984375 740.740234375 229.280273438 740.740234375 264.217773438 c 0
 740.740234375 264.329101562 740.740234375 264.508789062 740.740234375 264.620117188 c 2
598.870117188 367.23046875 m 0
 598.870117188 367.154296875 598.870117188 367.032226562 598.870117188 366.95703125 c 0
 598.870117188 297.327148438 543.197265625 231.124023438 474.600585938 219.1796875 c 2
 453.740234375 215.540039062 l 1
 586.870117188 82.4697265625 l 1
 495.310546875 82.4697265625 l 1
 345.310546875 232.469726562 l 1
 345.310546875 82.4697265625 l 1
 280.5703125 82.4697265625 l 1
 280.5703125 517.530273438 l 1
 448.5703125 517.530273438 l 2
 531.440429688 517.530273438 598.870117188 450.099609375 598.870117188 367.23046875 c 0
448.5703125 281.669921875 m 2
 495.799804688 281.669921875 534.129882812 320.000976562 534.129882812 367.23046875 c 0
 534.129882812 414.458984375 495.799804688 452.790039062 448.5703125 452.790039062 c 2
 345.280273438 452.790039062 l 1
 345.280273438 281.669921875 l 1
 448.5703125 281.669921875 l 2
EndSplineSet
Validated: 1
EndChar

StartChar: multiply
Encoding: 170 215 88
Width: 397
VWidth: 0
Flags: W
VStem: 40 317.616
LayerCount: 2
Fore
SplineSet
40 426.380859375 m 1
 89.498046875 475.87890625 l 1
 193.185546875 356.568359375 l 1
 198.807617188 349.497070312 l 1
 204.430664062 356.568359375 l 1
 308.1171875 475.87890625 l 1
 357.616210938 426.380859375 l 1
 245.376953125 307.071289062 l 1
 238.305664062 300 l 1
 245.376953125 292.928710938 l 1
 357.616210938 173.619140625 l 1
 308.1171875 124.12109375 l 1
 204.430664062 243.431640625 l 1
 198.807617188 250.502929688 l 1
 193.185546875 243.431640625 l 1
 89.498046875 124.12109375 l 1
 40 173.619140625 l 1
 152.239257812 292.928710938 l 1
 159.310546875 300 l 1
 152.239257812 307.071289062 l 1
 40 426.380859375 l 1
EndSplineSet
Validated: 1
EndChar

StartChar: period
Encoding: 46 46 89
Width: 174
VWidth: 0
Flags: W
HStem: 0 94.7598<47.4643 127.295>
VStem: 40 94.7598<7.46433 87.2954>
LayerCount: 2
Fore
SplineSet
40 47.3798828125 m 0
 40 73.546875 61.212890625 94.759765625 87.3798828125 94.759765625 c 0
 113.546875 94.759765625 134.759765625 73.546875 134.759765625 47.3798828125 c 0
 134.759765625 21.212890625 113.546875 0 87.3798828125 0 c 0
 61.212890625 0 40 21.212890625 40 47.3798828125 c 0
EndSplineSet
Validated: 1
EndChar

StartChar: comma
Encoding: 44 44 90
Width: 216
VWidth: 0
Flags: W
HStem: -59.2998 216.229
VStem: 98.4502 78.2705<72.988 138.791>
LayerCount: 2
Fore
SplineSet
98.4501953125 156.9296875 m 1
 176.720703125 137.009765625 l 1
 149.260742188 28.919921875 116.55078125 -29.48046875 94.2607421875 -59.2998046875 c 1
 40 -17.490234375 l 1
 58.3603515625 14.599609375 81.1201171875 68.8203125 98.4501953125 156.9296875 c 1
EndSplineSet
Validated: 1
EndChar

StartChar: at
Encoding: 64 64 91
Width: 837
VWidth: 0
Flags: W
HStem: -105.17 80.29<310.636 527.307> 66 87.46<348.417 489.823 641.698 707.352> 446.54 87.46<348.41 488.789> 624.82 80.3496<308.613 528.586>
VStem: 40 83.4092<160.303 439.697> 199.939 87.4697<214.232 385.768> 549.79 87.4697<214.077 385.768> 713.79 83.4092<158.797 439.697>
LayerCount: 2
Fore
SplineSet
418.599609375 705.169921875 m 0
 626.149414062 705.169921875 797.19921875 535.349609375 797.19921875 327.799804688 c 2
 797.19921875 189.700195312 l 2
 797.19921875 121.41796875 741.782226562 66 673.5 66 c 1
 673.484375 66 673.458984375 66 673.443359375 66 c 0
 635.135742188 66 587.852539062 92.5390625 567.899414062 125.240234375 c 1
 533.165039062 92.5771484375 466.279296875 66.037109375 418.599609375 66 c 0
 298.729492188 66 199.939453125 164.0703125 199.939453125 283.940429688 c 2
 199.939453125 316.059570312 l 2
 199.939453125 435.9296875 298.729492188 534 418.599609375 534 c 0
 538.469726562 534 637.259765625 435.9296875 637.259765625 316.059570312 c 2
 637.259765625 191.73046875 l 2
 637.259765625 170.610351562 654.400390625 153.465820312 675.51953125 153.459960938 c 1
 696.64453125 153.459960938 713.790039062 170.604492188 713.790039062 191.73046875 c 2
 713.790039062 334 l 2
 713.790039062 494 580.959960938 624.8203125 418.599609375 624.8203125 c 0
 256.239257812 624.8203125 123.409179688 494 123.409179688 334 c 2
 123.409179688 266 l 2
 123.409179688 106 256.239257812 -24.830078125 418.599609375 -24.8798828125 c 0
 418.671875 -24.8798828125 418.788085938 -24.8798828125 418.860351562 -24.8798828125 c 0
 459.193359375 -24.8798828125 520.900390625 -9.6484375 556.599609375 9.1201171875 c 1
 582.75 -67.4697265625 l 1
 539.890625 -88.2802734375 466.439453125 -105.169921875 418.795898438 -105.169921875 c 0
 418.741210938 -105.169921875 418.653320312 -105.169921875 418.599609375 -105.169921875 c 0
 211 -105.169921875 40 64.650390625 40 272.200195312 c 2
 40 327.799804688 l 2
 40 535.349609375 211.049804688 705.169921875 418.599609375 705.169921875 c 0
418.599609375 153.459960938 m 0
 490.759765625 153.459960938 549.790039062 212.5 549.790039062 284.66015625 c 2
 549.790039062 315.33984375 l 2
 549.790039062 387.540039062 490.790039062 446.540039062 418.599609375 446.540039062 c 0
 346.409179688 446.540039062 287.409179688 387.5 287.409179688 315.33984375 c 2
 287.409179688 284.66015625 l 2
 287.409179688 212.459960938 346.439453125 153.459960938 418.599609375 153.459960938 c 0
EndSplineSet
Validated: 5
EndChar

StartChar: semicolon
Encoding: 59 59 92
Width: 174
VWidth: 0
Flags: W
HStem: 0 94.7598<47.4643 127.295> 388.22 94.7607<47.4643 127.295>
VStem: 40 94.7598<7.46433 87.2954 395.684 475.516>
LayerCount: 2
Fore
SplineSet
40 435.599609375 m 4
 40 461.767578125 61.212890625 482.98046875 87.3798828125 482.98046875 c 4
 113.546875 482.98046875 134.759765625 461.767578125 134.759765625 435.599609375 c 4
 134.759765625 409.432617188 113.546875 388.219726562 87.3798828125 388.219726562 c 4
 61.212890625 388.219726562 40 409.432617188 40 435.599609375 c 4
40 47.3798828125 m 4
 40 73.546875 61.212890625 94.759765625 87.3798828125 94.759765625 c 4
 113.546875 94.759765625 134.759765625 73.546875 134.759765625 47.3798828125 c 4
 134.759765625 21.212890625 113.546875 0 87.3798828125 0 c 4
 61.212890625 0 40 21.212890625 40 47.3798828125 c 4
EndSplineSet
Validated: 1
EndChar

StartChar: braceleft
Encoding: 123 123 93
Width: 335
VWidth: 0
Flags: W
HStem: -94 65.2998<252.296 278.43> 308.77 88.4609<40 72.5975> 734.7 65.2998<252.296 278.43>
VStem: 72.96 89.1191<55.0837 306.943 399.057 650.916>
LayerCount: 2
Fore
SplineSet
162.079101562 116.759765625 m 2
 162.079101562 47.330078125 235.559570312 -8.7197265625 295.119140625 -28.7001953125 c 1
 278.4296875 -94 l 1
 165.129882812 -94 72.9599609375 39.4599609375 72.9599609375 150.83984375 c 2
 72.9599609375 283.190429688 l 2
 72.9599609375 295.76953125 62.5693359375 308.76953125 49.75 308.76953125 c 2
 40 308.76953125 l 1
 40 397.23046875 l 1
 49.75 397.23046875 l 2
 62.5693359375 397.23046875 72.9599609375 410.209960938 72.9599609375 422.809570312 c 2
 72.9599609375 555.16015625 l 2
 72.9599609375 666.540039062 165.129882812 800 278.4296875 800 c 1
 295.079101562 734.700195312 l 1
 235.51953125 714.719726562 162.079101562 658.669921875 162.079101562 589.240234375 c 2
 162.079101562 458 l 2
 162.079101562 394.700195312 111.5 353 111.549804688 353 c 0
 111.599609375 353 162.079101562 311.299804688 162.079101562 248 c 2
 162.079101562 116.759765625 l 2
EndSplineSet
Validated: 524321
EndChar

StartChar: braceright
Encoding: 125 125 94
Width: 335
VWidth: 0
Flags: W
HStem: -94 65.2998<56.6895 82.8233> 308.77 88.4609<262.522 295.119> 734.7 65.2998<56.6895 82.8233>
VStem: 173.04 89.1191<55.0837 306.943 399.057 650.916>
LayerCount: 2
Fore
SplineSet
173.040039062 589.240234375 m 2
 173.040039062 658.669921875 99.5595703125 714.719726562 40 734.700195312 c 1
 56.689453125 800 l 1
 169.989257812 800 262.159179688 666.540039062 262.159179688 555.16015625 c 2
 262.159179688 422.809570312 l 2
 262.159179688 410.23046875 272.549804688 397.23046875 285.369140625 397.23046875 c 2
 295.119140625 397.23046875 l 1
 295.119140625 308.76953125 l 1
 285.369140625 308.76953125 l 2
 272.549804688 308.76953125 262.159179688 295.790039062 262.159179688 283.190429688 c 2
 262.159179688 150.83984375 l 2
 262.159179688 39.4599609375 169.989257812 -94 56.689453125 -94 c 1
 40.0400390625 -28.7001953125 l 1
 99.599609375 -8.7197265625 173.040039062 47.330078125 173.040039062 116.759765625 c 2
 173.040039062 248 l 2
 173.040039062 311.299804688 223.619140625 353 223.569335938 353 c 0
 223.51953125 353 173.040039062 394.700195312 173.040039062 458 c 2
 173.040039062 589.240234375 l 2
EndSplineSet
Validated: 524321
EndChar

StartChar: equal
Encoding: 61 61 95
Width: 507
VWidth: 0
Flags: W
HStem: 165 90<40 467.471> 345 90<40 467.471>
LayerCount: 2
Fore
SplineSet
40 165 m 1
 40 255 l 1
 467.470703125 255 l 1
 467.470703125 165 l 1
 40 165 l 1
40 345 m 1
 40 435 l 1
 467.470703125 435 l 1
 467.470703125 345 l 1
 40 345 l 1
EndSplineSet
Validated: 1
EndChar

StartChar: bracketleft
Encoding: 91 91 96
Width: 349
VWidth: 0
Flags: W
HStem: -94 88.4502<128.45 309.74> 711.55 88.4502<128.45 309.74>
VStem: 40 269.74<-94 -5.5498 711.55 800> 40 88.4502<-5.5498 711.55>
LayerCount: 2
Fore
SplineSet
309.740234375 711.549804688 m 1xe0
 128.450195312 711.549804688 l 1
 128.450195312 -5.5498046875 l 1xd0
 309.740234375 -5.5498046875 l 1
 309.740234375 -94 l 1
 40 -94 l 1
 40 800 l 1
 309.740234375 800 l 1
 309.740234375 711.549804688 l 1xe0
EndSplineSet
Validated: 1
EndChar

StartChar: bracketright
Encoding: 93 93 97
Width: 349
VWidth: 0
Flags: W
HStem: -94 88.4502<40 221.28> 711.55 88.4502<40 221.28>
VStem: 40 269.74<-94 -5.5498 711.55 800> 221.28 88.46<-5.5498 711.55>
LayerCount: 2
Fore
SplineSet
40 -5.5498046875 m 1xe0
 221.280273438 -5.5498046875 l 1
 221.280273438 711.549804688 l 1xd0
 40 711.549804688 l 1
 40 800 l 1
 309.740234375 800 l 1
 309.740234375 -94 l 1
 40 -94 l 1
 40 -5.5498046875 l 1xe0
EndSplineSet
Validated: 1
EndChar

StartChar: divide
Encoding: 186 247 98
Width: 553
VWidth: 0
Flags: W
HStem: 72.8799 94.7803<236.696 316.544> 255.78 88.4502<40 513.23> 432.34 94.7803<236.696 316.544>
VStem: 229.23 94.7793<80.3459 160.194 439.806 519.654>
LayerCount: 2
Fore
SplineSet
40 255.780273438 m 1
 40 344.23046875 l 1
 513.23046875 344.23046875 l 1
 513.23046875 255.780273438 l 1
 40 255.780273438 l 1
229.23046875 479.73046875 m 0
 229.23046875 505.90234375 250.447265625 527.120117188 276.620117188 527.120117188 c 0
 302.79296875 527.120117188 324.009765625 505.90234375 324.009765625 479.73046875 c 0
 324.009765625 453.557617188 302.79296875 432.33984375 276.620117188 432.33984375 c 0
 250.447265625 432.33984375 229.23046875 453.557617188 229.23046875 479.73046875 c 0
229.23046875 120.26953125 m 0
 229.23046875 146.442382812 250.447265625 167.66015625 276.620117188 167.66015625 c 0
 302.79296875 167.66015625 324.009765625 146.442382812 324.009765625 120.26953125 c 0
 324.009765625 94.09765625 302.79296875 72.8798828125 276.620117188 72.8798828125 c 0
 250.447265625 72.8798828125 229.23046875 94.09765625 229.23046875 120.26953125 c 0
EndSplineSet
Validated: 1
EndChar

StartChar: sterling
Encoding: 163 163 99
Width: 561
VWidth: 0
Flags: W
HStem: 0 88.4697<234 521.83> 272.28 88.4502<40 145.58 234 521.8> 711.55 88.4502<335.696 521.83>
VStem: 145.58 88.4199<88.4697 272.28 360.73 608.762>
LayerCount: 2
Fore
SplineSet
419.780273438 711.549804688 m 2
 317.83984375 711.549804688 235.080078125 629.4296875 234 527.73046875 c 2
 234 360.73046875 l 1
 521.799804688 360.73046875 l 1
 521.799804688 272.280273438 l 1
 234 272.280273438 l 1
 234 88.4697265625 l 1
 521.830078125 88.4697265625 l 1
 521.830078125 0 l 1
 145.580078125 0 l 1
 145.580078125 272.280273438 l 1
 40 272.280273438 l 1
 40 360.73046875 l 1
 145.580078125 360.73046875 l 1
 145.580078125 527.73046875 l 2
 146.639648438 678.280273438 269 800 419.780273438 800 c 2
 521.830078125 800 l 1
 521.830078125 711.549804688 l 1
 419.780273438 711.549804688 l 2
EndSplineSet
Validated: 1
EndChar

StartChar: cent
Encoding: 162 162 100
Width: 581
VWidth: 0
Flags: W
HStem: -0.0996094 21G<279.68 368.13> 98.0898 85.1914<236.391 279.68 368.13 413.853> 616.87 84.9502<236.402 279.68 368.13 411.205> 780 20G<279.68 368.13>
VStem: 40 88.4492<289.863 510.276> 279.68 88.4502<-0.0996094 101.725 698.185 800>
LayerCount: 2
Fore
SplineSet
419.9296875 208.110351562 m 0
 438.791015625 218.749023438 464.966796875 241.193359375 478.359375 258.209960938 c 1
 541.359375 195.209960938 l 1
 503.427734375 150.780273438 425.821289062 107.256835938 368.129882812 98.0595703125 c 1
 368.129882812 -0.099609375 l 1
 279.6796875 -0.099609375 l 1
 279.6796875 98.08984375 l 1
 144 119.5 40 236.8203125 40 377.919921875 c 2
 40 422 l 2
 40 563.080078125 144.040039062 680.41015625 279.6796875 701.8203125 c 1
 279.6796875 800 l 1
 368.129882812 800 l 1
 368.129882812 701.830078125 l 1
 425.818359375 692.627929688 503.412109375 649.090820312 541.330078125 604.650390625 c 1
 478.330078125 541.650390625 l 1
 464.947265625 558.672851562 438.784179688 581.130859375 419.9296875 591.780273438 c 0
 395.288085938 605.629882812 352.346679688 616.870117188 324.079101562 616.870117188 c 0
 216.091796875 616.870117188 128.44921875 529.227539062 128.44921875 421.240234375 c 0
 128.44921875 421.173828125 128.44921875 421.06640625 128.44921875 421 c 2
 128.44921875 378.889648438 l 2
 128.665039062 270.9140625 216.47265625 183.28125 324.44921875 183.28125 c 0
 352.583984375 183.28125 395.359375 194.404296875 419.9296875 208.110351562 c 0
EndSplineSet
Validated: 1
EndChar

StartChar: yen
Encoding: 165 165 101
Width: 674
VWidth: 0
Flags: W
HStem: 0 21G<293.239 381.7> 264.86 88.4492<121.979 267.54 407.399 552.96> 780 20G<40 149.457 525.491 634.939>
VStem: 293.239 88.4609<0 264.86>
LayerCount: 2
Fore
SplineSet
535.6796875 800 m 1
 634.939453125 800 l 1
 407.399414062 353.309570312 l 1
 552.959960938 353.309570312 l 1
 552.959960938 264.860351562 l 1
 381.700195312 264.860351562 l 1
 381.700195312 0 l 1
 293.239257812 0 l 1
 293.239257812 264.860351562 l 1
 121.979492188 264.860351562 l 1
 121.979492188 353.309570312 l 1
 267.540039062 353.309570312 l 1
 40 800 l 1
 139.26953125 800 l 1
 337.469726562 410.91015625 l 1
 535.6796875 800 l 1
EndSplineSet
Validated: 1
EndChar

StartChar: zero
Encoding: 48 48 102
Width: 610
VWidth: 0
Flags: W
HStem: 5 94<226.12 383.87> 658.5 94<226.12 383.869>
VStem: 40 94<197.833 559.668> 476 94<197.832 559.667>
LayerCount: 2
Fore
SplineSet
40 478.4296875 m 2
 40 629.088867188 163.991210938 752.5 305 752.5 c 0
 446.008789062 752.5 570 629.087890625 570 478.4296875 c 2
 570 279.0703125 l 2
 570 128.411132812 446.008789062 5 305 5 c 0
 163.991210938 5 40 128.412109375 40 279.0703125 c 2
 40 478.4296875 l 2
305 99 m 0
 398.118164062 99 476 180.459960938 476 280 c 2
 476 477.5 l 2
 476 577.08984375 398.115234375 658.5 305 658.5 c 0
 211.836914062 658.5 134 577.087890625 134 477.5 c 2
 134 280 l 2
 134 180.462890625 211.834960938 99 305 99 c 0
EndSplineSet
Validated: 1
EndChar

StartChar: one
Encoding: 49 49 103
Width: 273
VWidth: 0
Flags: W
HStem: 642.9 94<40 139.18>
VStem: 139.18 94<10 642.9>
LayerCount: 2
Fore
SplineSet
233.1796875 10 m 1
 139.1796875 10 l 1
 139.1796875 632.900390625 l 1
 139.1796875 642.900390625 l 1
 129.1796875 642.900390625 l 1
 40 642.900390625 l 1
 40 736.900390625 l 1
 233.1796875 736.900390625 l 1
 233.1796875 10 l 1
EndSplineSet
Validated: 1
EndChar

StartChar: two
Encoding: 50 50 104
Width: 564
VWidth: 0
Flags: W
HStem: 10 94<227.383 524.807> 658.91 94<208.281 354.243>
VStem: 40 94.1162<510.41 577.373> 430.807 94<420.962 581.992>
LayerCount: 2
Fore
SplineSet
282.313476562 752.91015625 m 0
 411.755859375 752.91015625 524.806640625 639.888671875 524.806640625 500.41015625 c 0
 524.806640625 344.873046875 379.165039062 211.19140625 253.399414062 122.373046875 c 2
 227.3828125 104 l 1
 258.454101562 104 l 1
 524.806640625 104 l 1
 524.806640625 10 l 1
 65.146484375 10 l 1
 65.146484375 108.177734375 l 1
 109.383789062 133.5390625 430.806640625 330.854492188 430.806640625 500.41015625 c 0
 430.806640625 587.905273438 363.201171875 658.91015625 282.313476562 658.91015625 c 0
 204.102539062 658.91015625 139.61328125 592.864257812 134.116210938 510.41015625 c 1
 40 510.41015625 l 1
 45.5654296875 645.967773438 156.381835938 752.91015625 282.313476562 752.91015625 c 0
EndSplineSet
Validated: 1
EndChar

StartChar: three
Encoding: 51 51 105
Width: 533
VWidth: 0
Flags: W
HStem: 7.65039 93.998<173.846 324.136> 642.9 94<62.6846 318.245>
VStem: 400.411 93.293<179.163 339.442>
LayerCount: 2
Fore
SplineSet
348.552734375 490.100585938 m 1
 356.752929688 485.559570312 l 2
 437.37890625 443.918945312 493.7421875 358.645507812 493.704101562 260.150390625 c 0
 493.704101562 120.690429688 380.681640625 7.650390625 252.54296875 7.650390625 c 0
 175.655273438 7.650390625 86.0068359375 49.615234375 40 110.33984375 c 1
 101.783203125 171.576171875 l 1
 123.11328125 153.241210938 185.333007812 101.6484375 253.1875 101.6484375 c 0
 333.197265625 101.6484375 400.411132812 172.653320312 400.411132812 260.150390625 c 0
 400.411132812 347.245117188 333.552734375 418.236328125 253.833007812 418.650390625 c 2
 213.022460938 418.650390625 l 1
 311.411132812 628.334960938 l 1
 318.245117188 642.900390625 l 1
 303.275390625 642.900390625 l 1
 62.6845703125 642.900390625 l 1
 62.6845703125 736.900390625 l 1
 472.786132812 736.900390625 l 1
 352.747070312 499.043945312 l 1
 348.552734375 490.100585938 l 1
EndSplineSet
Validated: 33
EndChar

StartChar: four
Encoding: 52 52 106
Width: 639
VWidth: 0
Flags: W
HStem: 142.07 94<204.671 430.035 520.932 599.642> 716.9 20G<412.818 520.932>
VStem: 430.035 90.8965<10 142.07 236.07 594.574>
LayerCount: 2
Fore
SplineSet
520.931640625 236.0703125 m 1
 530.931640625 236.0703125 l 1
 599.641601562 236.0703125 l 1
 599.641601562 142.0703125 l 1
 530.931640625 142.0703125 l 1
 520.931640625 142.0703125 l 1
 520.931640625 132.0703125 l 1
 520.931640625 10 l 1
 430.03515625 10 l 1
 430.03515625 132.0703125 l 1
 430.03515625 142.0703125 l 1
 420.624023438 142.0703125 l 1
 40 142.0703125 l 1
 425.7890625 736.900390625 l 1
 520.931640625 736.900390625 l 1
 520.931640625 246.0703125 l 1
 520.931640625 236.0703125 l 1
430.03515625 236.0703125 m 1
 430.03515625 246.0703125 l 1
 430.03515625 561.599609375 l 1
 430.03515625 594.57421875 l 1
 412.798828125 567.154296875 l 1
 214.448242188 251.625 l 1
 204.670898438 236.0703125 l 1
 222.274414062 236.0703125 l 1
 420.624023438 236.0703125 l 1
 430.03515625 236.0703125 l 1
EndSplineSet
Validated: 1
EndChar

StartChar: five
Encoding: 53 53 107
Width: 533
VWidth: 0
Flags: W
HStem: 7.66992 94<173.881 323.797> 418.67 94<183.48 323.768> 642.9 94<182.216 462.915>
VStem: 90.2949 91.9209<501.071 642.9> 399.694 94<178.592 341.748>
LayerCount: 2
Fore
SplineSet
193.684570312 504.369140625 m 2
 209.147460938 508.814453125 236.467773438 512.669921875 252.473632812 512.669921875 c 0
 380.60546875 512.669921875 493.694335938 399.62890625 493.694335938 260.169921875 c 0
 493.694335938 120.7109375 380.672851562 7.669921875 252.534179688 7.669921875 c 0
 175.646484375 7.669921875 86.0068359375 49.634765625 40 110.360351562 c 1
 101.783203125 171.596679688 l 1
 122.97265625 153.380859375 185.912109375 101.669921875 252.534179688 101.669921875 c 0
 332.541992188 101.669921875 399.694335938 172.674804688 399.694335938 260.169921875 c 0
 399.694335938 347.665039062 332.541992188 418.669921875 252.534179688 418.669921875 c 0
 225.494140625 418.669921875 159.57421875 410.680664062 90.294921875 396.990234375 c 1
 90.294921875 736.900390625 l 1
 462.915039062 736.900390625 l 1
 462.915039062 642.900390625 l 1
 191.360351562 642.900390625 l 1
 182.215820312 642.900390625 l 1
 182.215820312 632.900390625 l 1
 182.215820312 514.040039062 l 1
 182.215820312 501.071289062 l 1
 193.684570312 504.369140625 l 2
EndSplineSet
Validated: 1
EndChar

StartChar: six
Encoding: 54 54 108
Width: 565
VWidth: 0
Flags: W
HStem: 7.66992 94<210.567 354.433> 418.67 76.8291<221.869 353.256>
VStem: 40 94<178.588 340.417> 431 94<178.592 341.553>
LayerCount: 2
Fore
SplineSet
183.779296875 464.788085938 m 2
 199.434570312 454.209960938 l 1
 214.615234375 477.334960938 257.075195312 495.463867188 307.561523438 495.499023438 c 0
 401.739257812 495.564453125 525 435.859375 525 260.169921875 c 0
 525 120.711914062 411.948242188 7.669921875 282.5 7.669921875 c 0
 153.05078125 7.669921875 40 120.69140625 40 260.169921875 c 0
 40 508.845703125 202.012695312 665.66015625 318.041992188 749.075195312 c 1
 361.70703125 677.311523438 l 1
 243.870117188 584.474609375 184.140625 465.50390625 183.779296875 464.788085938 c 2
134 260.169921875 m 0
 134 172.674804688 201.608398438 101.669921875 282.5 101.669921875 c 0
 363.391601562 101.669921875 431 172.674804688 431 260.169921875 c 0
 431 347.665039062 363.391601562 418.669921875 282.5 418.669921875 c 0
 201.608398438 418.669921875 134 347.665039062 134 260.169921875 c 0
EndSplineSet
Validated: 33
EndChar

StartChar: seven
Encoding: 55 55 109
Width: 564
VWidth: 0
Flags: W
HStem: 642.9 94<40 417.386>
VStem: 172.008 94.6475<10 144.777>
LayerCount: 2
Fore
SplineSet
266.655273438 10 m 1
 172.0078125 10 l 1
 194.032226562 387.2265625 401.861328125 626.064453125 401.861328125 626.064453125 c 1
 417.385742188 642.900390625 l 1
 395.114257812 642.900390625 l 1
 40 642.900390625 l 1
 40 736.900390625 l 1
 524.830078125 736.900390625 l 1
 524.830078125 636.712890625 l 1
 497.799804688 606.000976562 290.28125 350.01953125 266.655273438 10 c 1
EndSplineSet
Validated: 1
EndChar

StartChar: eight
Encoding: 56 56 110
Width: 565
VWidth: 0
Flags: W
HStem: 7.66992 94<210.567 354.433> 418.67 61.2402<228.512 336.488> 658.91 94<230.026 334.974>
VStem: 40 94<178.611 341.736> 109 90.7549<509.62 628.922> 365.245 90.7549<509.637 628.893> 431 94<178.592 341.752>
LayerCount: 2
Fore
SplineSet
422.572265625 463.419921875 m 1xec
 429.633789062 457.81640625 l 2
 481.596679688 416.586914062 525 326.911132812 525 260.169921875 c 0
 525 120.711914062 411.948242188 7.669921875 282.5 7.669921875 c 0
 153.05078125 7.669921875 40 120.498046875 40 260.409179688 c 0xf2
 40 326.685546875 83.447265625 416.62109375 135.366210938 457.81640625 c 2
 142.427734375 463.419921875 l 1
 137.583984375 471.0234375 l 2
 122.229492188 495.125976562 109 540.323242188 109 569.41015625 c 0
 109 670.758789062 188.80078125 752.91015625 282.5 752.91015625 c 0
 376.19921875 752.91015625 456 671.01171875 456 569.099609375 c 0
 456 540.620117188 442.719726562 495.045898438 427.416015625 471.0234375 c 2
 422.572265625 463.419921875 l 1xec
365.245117188 569.41015625 m 0xec
 365.245117188 618.817382812 328.178710938 658.91015625 282.5 658.91015625 c 0
 236.821289062 658.91015625 199.754882812 618.817382812 199.754882812 569.41015625 c 0
 199.754882812 520.002929688 236.821289062 479.91015625 282.5 479.91015625 c 0
 328.178710938 479.91015625 365.245117188 520.002929688 365.245117188 569.41015625 c 0xec
134 260.169921875 m 0xf2
 134 172.674804688 201.608398438 101.669921875 282.5 101.669921875 c 0
 363.391601562 101.669921875 431 172.674804688 431 260.169921875 c 0
 431 347.665039062 363.391601562 418.669921875 282.5 418.669921875 c 0
 201.608398438 418.669921875 134 347.665039062 134 260.169921875 c 0xf2
EndSplineSet
Validated: 1
EndChar

StartChar: nine
Encoding: 57 57 111
Width: 565
VWidth: 0
Flags: W
HStem: 265.076 76.834<211.744 343.131> 658.91 94<210.567 354.433>
VStem: 40 94<419.027 581.988> 431 94<420.162 581.992>
LayerCount: 2
Fore
SplineSet
381.220703125 295.791992188 m 2
 365.564453125 306.369140625 l 1
 350.383789062 283.2421875 307.924804688 265.111328125 257.438476562 265.076171875 c 0
 163.26171875 265.010742188 40 324.720703125 40 500.41015625 c 0
 40 639.868164062 153.051757812 752.91015625 282.5 752.91015625 c 0
 411.94921875 752.91015625 525 639.888671875 525 500.41015625 c 0
 525 251.724609375 362.98828125 94.919921875 246.95703125 11.5048828125 c 1
 203.293945312 83.259765625 l 1
 321.129882812 176.106445312 380.859375 295.076171875 381.220703125 295.791992188 c 2
431 500.41015625 m 0
 431 587.905273438 363.391601562 658.91015625 282.5 658.91015625 c 0
 201.608398438 658.91015625 134 587.905273438 134 500.41015625 c 0
 134 412.915039062 201.608398438 341.91015625 282.5 341.91015625 c 0
 363.391601562 341.91015625 431 412.915039062 431 500.41015625 c 0
EndSplineSet
Validated: 33
EndChar

StartChar: ampersand
Encoding: 38 38 112
Width: 728
VWidth: 0
Flags: W
HStem: 350.427 88.5537<190.153 268.772> 711.545 88.4453<286.527 395.626>
VStem: 171.304 88.4551<573.796 684.773> 422.398 88.4453<576.608 684.773>
LayerCount: 2
Fore
SplineSet
688.578125 1 m 1
 580.057617188 1 l 1
 472.98828125 151.629882812 l 1
 460.7734375 112.190429688 423.522460938 60.8046875 389.837890625 36.9296875 c 0
 290.127929688 -33.9404296875 151.84765625 -10.5595703125 80.978515625 89.1396484375 c 0
 10.1083984375 188.83984375 33.478515625 327.120117188 133.177734375 398 c 0
 164.899414062 420.62109375 222.264648438 438.98046875 261.2265625 438.98046875 c 0
 263.322265625 438.98046875 266.723632812 438.921875 268.818359375 438.849609375 c 2
 202.708007812 531.849609375 l 1
 185.373046875 556.233398438 171.303710938 600.302734375 171.303710938 630.220703125 c 0
 171.303710938 723.93359375 247.361328125 799.990234375 341.07421875 799.990234375 c 0
 434.787109375 799.990234375 510.84375 723.93359375 510.84375 630.220703125 c 0
 510.84375 581.859375 478.854492188 519.870117188 439.438476562 491.849609375 c 1
 388.188476562 563.940429688 l 1
 407.072265625 577.361328125 422.3984375 607.056640625 422.3984375 630.224609375 c 0
 422.3984375 675.11328125 385.967773438 711.544921875 341.079101562 711.544921875 c 0
 296.190429688 711.544921875 259.758789062 675.11328125 259.758789062 630.224609375 c 0
 259.758789062 615.896484375 266.49609375 594.7890625 274.797851562 583.110351562 c 2
 361.158203125 461.610351562 l 1
 688.578125 1 l 1
338.578125 109 m 1
 338.587890625 109 l 1
 369.483398438 130.950195312 394.557617188 179.5234375 394.557617188 217.421875 c 0
 394.557617188 240.868164062 383.528320312 275.403320312 369.938476562 294.509765625 c 0
 347.986328125 325.375976562 299.4296875 350.426757812 261.553710938 350.426757812 c 0
 188.137695312 350.426757812 128.553710938 290.842773438 128.553710938 217.426757812 c 0
 128.553710938 144.010742188 188.137695312 84.4267578125 261.553710938 84.4267578125 c 0
 284.9765625 84.4267578125 319.483398438 95.435546875 338.578125 109 c 1
EndSplineSet
Validated: 37
EndChar

StartChar: asterisk
Encoding: 42 42 113
Width: 518
VWidth: 0
Flags: W
VStem: 214.08 90<354.56 508.36>
LayerCount: 2
Fore
SplineSet
478.16015625 316.490234375 m 1
 331.889648438 268.969726562 l 1
 422.290039062 144.540039062 l 1
 349.48046875 91.6396484375 l 1
 259.080078125 216.0703125 l 1
 168.6796875 91.6396484375 l 1
 95.8701171875 144.540039062 l 1
 186.270507812 268.969726562 l 1
 40 316.490234375 l 1
 67.810546875 402.08984375 l 1
 214.080078125 354.559570312 l 1
 214.080078125 508.360351562 l 1
 304.080078125 508.360351562 l 1
 304.080078125 354.559570312 l 1
 450.349609375 402.08984375 l 1
 478.16015625 316.490234375 l 1
EndSplineSet
Validated: 1
EndChar

StartChar: plus
Encoding: 43 43 114
Width: 534
VWidth: 0
Flags: W
HStem: 255.77 88.4609<40 222.89 311.351 494.24>
VStem: 222.89 88.4609<72.8799 255.77 344.23 527.12>
LayerCount: 2
Fore
SplineSet
494.240234375 344.23046875 m 1
 494.240234375 255.76953125 l 1
 311.350585938 255.76953125 l 1
 311.350585938 72.8798828125 l 1
 222.889648438 72.8798828125 l 1
 222.889648438 255.76953125 l 1
 40 255.76953125 l 1
 40 344.23046875 l 1
 222.889648438 344.23046875 l 1
 222.889648438 527.120117188 l 1
 311.350585938 527.120117188 l 1
 311.350585938 344.23046875 l 1
 494.240234375 344.23046875 l 1
EndSplineSet
Validated: 1
EndChar

StartChar: quotedbl
Encoding: 34 34 115
Width: 299
VWidth: 0
Flags: W
HStem: 494 244
VStem: 66.9502 78.71<555.861 738> 180.95 78.71<555.861 738>
LayerCount: 2
Fore
SplineSet
66.9501953125 738 m 1
 145.66015625 738 l 1
 145.66015625 548 95.599609375 494 95.599609375 494 c 1
 40 526.9296875 l 1
 55.6298828125 570.889648438 66.9501953125 624 66.9501953125 738 c 1
180.950195312 738 m 1
 259.66015625 738 l 1
 259.66015625 548 209.599609375 494 209.599609375 494 c 1
 154 526.9296875 l 1
 169.629882812 570.889648438 180.950195312 624 180.950195312 738 c 1
EndSplineSet
Validated: 1
EndChar

StartChar: colon
Encoding: 58 58 116
Width: 174
VWidth: 0
Flags: W
HStem: 0 94.7598<47.4643 127.295> 388.22 94.7607<47.4643 127.295>
VStem: 40 94.7598<7.46433 87.2954 395.684 475.516>
LayerCount: 2
Fore
SplineSet
40 435.599609375 m 4
 40 461.767578125 61.212890625 482.98046875 87.3798828125 482.98046875 c 4
 113.546875 482.98046875 134.759765625 461.767578125 134.759765625 435.599609375 c 4
 134.759765625 409.432617188 113.546875 388.219726562 87.3798828125 388.219726562 c 4
 61.212890625 388.219726562 40 409.432617188 40 435.599609375 c 4
40 47.3798828125 m 4
 40 73.546875 61.212890625 94.759765625 87.3798828125 94.759765625 c 4
 113.546875 94.759765625 134.759765625 73.546875 134.759765625 47.3798828125 c 4
 134.759765625 21.212890625 113.546875 0 87.3798828125 0 c 4
 61.212890625 0 40 21.212890625 40 47.3798828125 c 4
EndSplineSet
Validated: 1
EndChar

StartChar: less
Encoding: 60 60 117
Width: 470
VWidth: 0
Flags: W
LayerCount: 2
Fore
SplineSet
367.659179688 -27.66015625 m 1
 40 300 l 1
 367.659179688 627.66015625 l 1
 430.19921875 565.110351562 l 1
 165.08984375 300 l 1
 430.19921875 34.8896484375 l 1
 367.659179688 -27.66015625 l 1
EndSplineSet
Validated: 1
EndChar

StartChar: greater
Encoding: 62 62 118
Width: 470
VWidth: 0
Flags: W
LayerCount: 2
Fore
SplineSet
102.540039062 627.66015625 m 1
 430.19921875 300 l 1
 102.540039062 -27.66015625 l 1
 40 34.8896484375 l 1
 305.109375 300 l 1
 40 565.110351562 l 1
 102.540039062 627.66015625 l 1
EndSplineSet
Validated: 1
EndChar

StartChar: slash
Encoding: 47 47 119
Width: 476
VWidth: 0
Flags: W
HStem: 781 20G<336.351 436.16>
LayerCount: 2
Fore
SplineSet
40 -113.110351562 m 1
 342.979492188 801 l 1
 436.16015625 801 l 1
 133.1796875 -113.110351562 l 1
 40 -113.110351562 l 1
EndSplineSet
Validated: 1
EndChar

StartChar: backslash
Encoding: 92 92 120
Width: 476
VWidth: 0
Flags: W
HStem: 781 20G<40 139.809>
LayerCount: 2
Fore
SplineSet
436.16015625 -113.110351562 m 1
 342.979492188 -113.110351562 l 1
 40 801 l 1
 133.1796875 801 l 1
 436.16015625 -113.110351562 l 1
EndSplineSet
Validated: 1
EndChar

StartChar: S
Encoding: 83 83 121
Width: 704
VWidth: 0
Flags: W
HStem: -5.30957 88<244.442 470.023> 716.65 88<222.182 475.086>
VStem: 53.1201 88.0303<539.292 653.887> 576.641 88.0098<169.891 292.475>
LayerCount: 2
Fore
SplineSet
555.80078125 403.419921875 m 0
 628.020507812 363.849609375 664.640625 305.349609375 664.650390625 229.559570312 c 0
 664.650390625 168.360351562 631.08984375 107.5703125 572.650390625 62.7900390625 c 0
 515.3203125 18.8701171875 440.650390625 -5.3095703125 362.3203125 -5.3095703125 c 0
 211.940429688 -5.3095703125 121.73046875 65.759765625 72.5302734375 125.379882812 c 0
 62.62890625 137.40234375 48.0556640625 157.979492188 40 171.309570312 c 1
 110.91015625 224.309570312 l 1
 118.477539062 210.958984375 132.638671875 190.592773438 142.520507812 178.849609375 c 0
 196.419921875 115.040039062 270.350585938 82.6904296875 362.350585938 82.6904296875 c 0
 421.430664062 82.6904296875 477.150390625 100.4296875 519.150390625 132.639648438 c 0
 555.640625 160.639648438 576.640625 195.959960938 576.640625 229.559570312 c 0
 576.640625 320.240234375 486.530273438 347.150390625 338.120117188 380.6796875 c 0
 273.3203125 395.330078125 206.3203125 410.48046875 154.360351562 437.700195312 c 0
 87.1806640625 472.940429688 53.1201171875 524.849609375 53.1201171875 592 c 0
 53.1201171875 626.8203125 61.6298828125 658.83984375 78.41015625 687.1796875 c 0
 94.23046875 713.900390625 117.040039062 736.669921875 146.23046875 754.900390625 c 0
 198.3203125 787.450195312 269.959960938 804.650390625 353.3203125 804.650390625 c 0
 494.510742188 804.650390625 583.23046875 747 637.459960938 686.33984375 c 1
 571.950195312 627.650390625 l 1
 519.3203125 686.73046875 445.900390625 716.650390625 353.3203125 716.650390625 c 0
 287.440429688 716.650390625 230.450195312 703.73046875 192.870117188 680.259765625 c 0
 158.0703125 658.51953125 141.150390625 629.650390625 141.150390625 592 c 0
 141.150390625 520.5703125 222.890625 496.940429688 357.510742188 466.51953125 c 0
 427.060546875 450.799804688 498.98046875 434.549804688 555.80078125 403.419921875 c 0
EndSplineSet
Validated: 1
EndChar

StartChar: hyphen
Encoding: 45 45 122
Width: 419
VWidth: 0
Flags: W
HStem: 255.78 88.4502<40 379>
LayerCount: 2
Fore
SplineSet
40 255.780273438 m 1
 40 344.23046875 l 1
 379 344.23046875 l 1
 379 255.780273438 l 1
 40 255.780273438 l 1
EndSplineSet
Validated: 1
EndChar

StartChar: question
Encoding: 63 63 123
Width: 588
VWidth: 0
Flags: W
HStem: -0.110352 94.7803<254.521 334.369>
VStem: 40 83.9834<526.35 611.523> 247.056 94.7793<7.35569 87.2042>
LayerCount: 2
Fore
SplineSet
474.365234375 350.629882812 m 2
 303.1953125 179.459960938 l 1
 243.794921875 238.860351562 l 1
 414.96484375 410 l 2
 442.53125 437.560546875 464.903320312 491.564453125 464.903320312 530.544921875 c 0
 464.903320312 624.638671875 388.538085938 701.004882812 294.443359375 701.004882812 c 0
 200.349609375 701.004882812 123.983398438 624.638671875 123.983398438 530.544921875 c 0
 123.983398438 529.38671875 124.006835938 527.5078125 124.03515625 526.349609375 c 2
 40.03515625 526.349609375 l 2
 40.015625 527.515625 40 529.407226562 40 530.573242188 c 0
 40 588.74609375 73.3876953125 669.33984375 114.525390625 710.469726562 c 0
 213.735351562 809.6796875 375.155273438 809.6796875 474.365234375 710.469726562 c 0
 573.575195312 611.259765625 573.575195312 449.83984375 474.365234375 350.629882812 c 2
247.055664062 47.2802734375 m 0
 247.055664062 73.453125 268.272460938 94.669921875 294.4453125 94.669921875 c 0
 320.618164062 94.669921875 341.834960938 73.453125 341.834960938 47.2802734375 c 0
 341.834960938 21.107421875 320.618164062 -0.1103515625 294.4453125 -0.1103515625 c 0
 268.272460938 -0.1103515625 247.055664062 21.107421875 247.055664062 47.2802734375 c 0
EndSplineSet
Validated: 33
EndChar

StartChar: quotesingle
Encoding: 39 39 124
Width: 185
VWidth: 0
Flags: W
HStem: 494 244
VStem: 66.9502 78.71<555.861 738>
LayerCount: 2
Fore
SplineSet
66.9501953125 738 m 1
 145.66015625 738 l 1
 145.66015625 548 95.599609375 494 95.599609375 494 c 1
 40 526.9296875 l 1
 55.6298828125 570.889648438 66.9501953125 624 66.9501953125 738 c 1
EndSplineSet
Validated: 1
EndChar

StartChar: grave
Encoding: 96 96 125
Width: 185
VWidth: 0
Flags: W
HStem: 494 244
VStem: 40 78.71<555.861 738>
LayerCount: 2
Fore
SplineSet
118.709960938 738 m 1
 118.709960938 624 130.030273438 570.889648438 145.709960938 526.9296875 c 1
 90.060546875 494 l 1
 90.060546875 494 40 548 40 738 c 1
 118.709960938 738 l 1
EndSplineSet
Validated: 1
EndChar

StartChar: bar
Encoding: 124 124 126
Width: 174
VWidth: 0
Flags: W
HStem: 716.9 20G<40 134>
VStem: 40 94<-142.7 736.9>
LayerCount: 2
Fore
SplineSet
40 -142.700195312 m 1
 40 736.900390625 l 1
 134 736.900390625 l 1
 134 -142.700195312 l 1
 40 -142.700195312 l 1
EndSplineSet
Validated: 1
EndChar

StartChar: asciicircum
Encoding: 94 94 127
Width: 524
VWidth: 0
Flags: W
HStem: 315.44 284.659
LayerCount: 2
Fore
SplineSet
262.120117188 475.009765625 m 1
 102.549804688 315.440429688 l 1
 40 377.990234375 l 1
 262.120117188 600.099609375 l 1
 484.240234375 377.990234375 l 1
 421.700195312 315.440429688 l 1
 262.120117188 475.009765625 l 1
EndSplineSet
Validated: 1
EndChar

StartChar: underscore
Encoding: 95 95 128
Width: 567
VWidth: 0
Flags: W
HStem: 10 70<40 527.471>
LayerCount: 2
Fore
SplineSet
40 10 m 1
 40 80 l 1
 527.470703125 80 l 1
 527.470703125 10 l 1
 40 10 l 1
EndSplineSet
Validated: 1
EndChar

StartChar: asciitilde
Encoding: 126 126 129
Width: 523
VWidth: 0
Flags: W
LayerCount: 2
Fore
SplineSet
114.526367188 437.416992188 m 1
 40 432.7578125 l 1
 46.353515625 491.82421875 74.619140625 530.881835938 110.997070312 553.275390625 c 0
 173.004882812 591.447265625 257.721679688 578.623046875 297.185546875 514.3828125 c 0
 315.557617188 484.498046875 356.21875 480.020507812 383.564453125 499.473632812 c 0
 396.020507812 508.34375 404.779296875 523.9921875 408.22265625 538.703125 c 1
 483.359375 543.399414062 l 1
 480.752929688 496.362304688 461.587890625 462.654296875 433.986328125 439.907226562 c 0
 375.7265625 391.89453125 279.506835938 396.21484375 224.775390625 462.842773438 c 0
 203.901367188 488.284179688 167.27734375 496.630859375 139.18359375 476.645507812 c 0
 126.728515625 467.775390625 117.970703125 452.126953125 114.526367188 437.416992188 c 1
EndSplineSet
Validated: 33
EndChar

